<svg xmlns="http://www.w3.org/2000/svg" width="10" height="17" viewBox="0 0 10 17" fill="none">
  <path fill-rule="evenodd" clip-rule="evenodd" d="M4.29289 0.292893C4.68342 -0.0976311 5.31658 -0.0976311 5.70711 0.292893L9.70711 4.29289C10.0976 4.68342 10.0976 5.31658 9.70711 5.70711C9.31658 6.09763 8.68342 6.09763 8.29289 5.70711L5 2.41421L1.70711 5.70711C1.31658 6.09763 0.683417 6.09763 0.292893 5.70711C-0.0976311 5.31658 -0.0976311 4.68342 0.292893 4.29289L4.29289 0.292893ZM0.292894 11.2929C0.683418 10.9024 1.31658 10.9024 1.70711 11.2929L5 14.5858L8.29289 11.2929C8.68342 10.9024 9.31658 10.9024 9.70711 11.2929C10.0976 11.6834 10.0976 12.3166 9.70711 12.7071L5.70711 16.7071C5.31658 17.0976 4.68342 17.0976 4.29289 16.7071L0.292894 12.7071C-0.0976307 12.3166 -0.0976307 11.6834 0.292894 11.2929Z" fill="white" fill-opacity="0.5"/>
</svg>