<svg xmlns="http://www.w3.org/2000/svg" width="16" height="16" viewBox="0 0 16 16" fill="none">
  <path d="M1 8C1 8.91925 1.18106 9.82951 1.53284 10.6788C1.88463 11.5281 2.40024 12.2997 3.05025 12.9497C3.70026 13.5998 4.47194 14.1154 5.32122 14.4672C6.1705 14.8189 7.08075 15 8 15M1 8C1 7.08075 1.18106 6.1705 1.53284 5.32122C1.88463 4.47194 2.40024 3.70026 3.05025 3.05025C3.70026 2.40024 4.47194 1.88463 5.32122 1.53284C6.1705 1.18106 7.08075 1 8 1M1 8C2.85652 8 4.63699 8.7375 5.94975 10.0503C7.2625 11.363 8 13.1435 8 15M8 15C8.91925 15 9.82951 14.8189 10.6788 14.4672C11.5281 14.1154 12.2997 13.5998 12.9497 12.9497C13.5998 12.2997 14.1154 11.5281 14.4672 10.6788C14.8189 9.82951 15 8.91925 15 8M15 8C15 7.08075 14.8189 6.1705 14.4672 5.32122C14.1154 4.47194 13.5998 3.70026 12.9497 3.05025C12.2997 2.40024 11.5281 1.88463 10.6788 1.53284C9.82951 1.18106 8.91925 1 8 1M15 8C13.1435 8 11.363 7.2625 10.0503 5.94975C8.7375 4.63699 8 2.85652 8 1M3.06111 3.06111L12.9389 12.9389M3.06111 12.9389L12.9389 3.06111" stroke="white" stroke-width="1.5" stroke-linecap="round" stroke-linejoin="round"/>
</svg>