<svg xmlns="http://www.w3.org/2000/svg" width="24" height="24" viewBox="0 0 24 24" fill="none">
  <path d="M1 12C1 13.4445 1.28452 14.8749 1.83733 16.2095C2.39013 17.5441 3.20038 18.7567 4.22183 19.7782C5.24327 20.7996 6.4559 21.6099 7.79048 22.1627C9.12506 22.7155 10.5555 23 12 23M1 12C1 10.5555 1.28452 9.12506 1.83733 7.79048C2.39013 6.4559 3.20038 5.24327 4.22183 4.22183C5.24327 3.20038 6.4559 2.39013 7.79048 1.83733C9.12506 1.28452 10.5555 1 12 1M1 12C3.91738 12 6.71527 13.1589 8.77817 15.2218C10.8411 17.2847 12 20.0826 12 23M12 23C13.4445 23 14.8749 22.7155 16.2095 22.1627C17.5441 21.6099 18.7567 20.7996 19.7782 19.7782C20.7996 18.7567 21.6099 17.5441 22.1627 16.2095C22.7155 14.8749 23 13.4445 23 12M23 12C23 10.5555 22.7155 9.12506 22.1627 7.79048C21.6099 6.4559 20.7996 5.24327 19.7782 4.22183C18.7567 3.20038 17.5441 2.39013 16.2095 1.83733C14.8749 1.28452 13.4445 1 12 1M23 12C20.0826 12 17.2847 10.8411 15.2218 8.77817C13.1589 6.71527 12 3.91738 12 1M4.23888 4.23888L19.7611 19.7611M4.23888 19.7611L19.7611 4.23888" stroke="white" stroke-width="2" stroke-linecap="round" stroke-linejoin="round"/>
</svg>