<svg xmlns="http://www.w3.org/2000/svg" width="18" height="18" viewBox="0 0 18 18" fill="none">
  <path d="M1.89956 13.2107C1.62697 13.0553 1.40024 12.8307 1.24229 12.5596C1.08434 12.2884 1.00076 11.9804 1 11.6667V2.77778C1 1.8 1.8 1 2.77778 1H11.6667C12.3333 1 12.696 1.34222 13 1.88889M4.55469 6.92633C4.55469 6.29759 4.80445 5.6946 5.24904 5.25002C5.69363 4.80543 6.29661 4.55566 6.92535 4.55566H14.6285C14.9398 4.55566 15.2481 4.61698 15.5357 4.73612C15.8233 4.85526 16.0846 5.02988 16.3048 5.25002C16.5249 5.47015 16.6995 5.73149 16.8187 6.01912C16.9378 6.30674 16.9991 6.61501 16.9991 6.92633V14.6294C16.9991 14.9408 16.9378 15.249 16.8187 15.5367C16.6995 15.8243 16.5249 16.0856 16.3048 16.3058C16.0846 16.5259 15.8233 16.7005 15.5357 16.8197C15.2481 16.9388 14.9398 17.0001 14.6285 17.0001H6.92535C6.61403 17.0001 6.30576 16.9388 6.01814 16.8197C5.73052 16.7005 5.46918 16.5259 5.24904 16.3058C5.0289 16.0856 4.85428 15.8243 4.73514 15.5367C4.61601 15.249 4.55469 14.9408 4.55469 14.6294V6.92633Z" stroke="white" stroke-width="2" stroke-linecap="round" stroke-linejoin="round"/>
</svg>