<svg xmlns="http://www.w3.org/2000/svg" width="18" height="18" viewBox="0 0 18 18" fill="none">
  <path d="M1.89955 13.2106C1.62697 13.0552 1.40024 12.8306 1.24229 12.5595C1.08434 12.2884 1.00076 11.9804 1 11.6666V2.77777C1 1.79999 1.79999 1 2.77777 1H11.6666C12.3333 1 12.6959 1.34222 12.9999 1.88888M4.55466 6.92629C4.55466 6.29755 4.80443 5.69457 5.24901 5.24999C5.69359 4.8054 6.29658 4.55564 6.92531 4.55564H14.6284C14.9397 4.55564 15.248 4.61696 15.5356 4.7361C15.8232 4.85523 16.0845 5.02985 16.3047 5.24999C16.5248 5.47012 16.6994 5.73146 16.8186 6.01908C16.9377 6.3067 16.999 6.61497 16.999 6.92629V14.6293C16.999 14.9407 16.9377 15.2489 16.8186 15.5366C16.6994 15.8242 16.5248 16.0855 16.3047 16.3057C16.0845 16.5258 15.8232 16.7004 15.5356 16.8195C15.248 16.9387 14.9397 17 14.6284 17H6.92531C6.614 17 6.30573 16.9387 6.01811 16.8195C5.73048 16.7004 5.46915 16.5258 5.24901 16.3057C5.02888 16.0855 4.85425 15.8242 4.73512 15.5366C4.61598 15.2489 4.55466 14.9407 4.55466 14.6293V6.92629Z" stroke="white" stroke-width="2" stroke-linecap="round" stroke-linejoin="round"/>
</svg>