<svg width="26" height="20" viewBox="0 0 26 20" fill="none" xmlns="http://www.w3.org/2000/svg">
<path d="M6.81645 11.3796C6.71621 13.0837 8.0193 14.487 9.72334 14.5872C11.4274 14.487 12.7305 12.9834 12.6302 11.2794C12.7305 9.57536 11.4274 8.0718 9.72334 7.97156C8.0193 8.17203 6.71621 9.6756 6.81645 11.3796ZM10.5252 11.3796C10.5252 12.0813 10.1243 12.6827 9.6231 12.6827C9.12192 12.6827 8.72097 12.0813 8.72097 11.3796C8.72097 10.678 9.22215 10.0765 9.72334 10.0765C10.2245 10.0765 10.5252 10.678 10.5252 11.3796Z" fill="white"/>
<path d="M16.2387 8.07184C14.5347 8.17208 13.2316 9.67564 13.3318 11.3797C13.2316 13.0837 14.5347 14.487 16.2387 14.6875C17.9428 14.5873 19.2459 13.0837 19.1456 11.3797C19.2459 9.67564 17.9428 8.17208 16.2387 8.07184ZM16.2387 12.5825C15.7375 12.5825 15.3366 11.9811 15.3366 11.2794C15.3366 10.5778 15.7375 9.97635 16.2387 9.97635C16.7399 9.97635 17.1409 10.5778 17.1409 11.2794C17.1409 11.9811 16.7399 12.5825 16.2387 12.5825Z" fill="white"/>
<path d="M23.6561 4.46317C23.5558 4.36294 23.5558 4.2627 23.5558 4.2627C21.8518 2.15771 19.4461 0.654147 16.7397 0.052721C16.2385 -0.147754 15.6371 0.253196 15.5368 0.754384C15.4366 1.25557 15.7373 1.857 16.2385 1.95724C16.2385 1.95724 16.2385 1.95724 16.3387 1.95724C18.544 2.45842 20.5487 3.66127 21.952 5.36531C23.2551 8.47268 24.057 11.7805 24.057 15.1886C22.6537 16.4917 20.9497 17.3938 19.0451 17.6945V17.2936C19.0451 17.2936 19.0451 17.2936 19.0451 17.1933C20.248 16.6922 21.4508 16.0907 22.4532 15.1886C22.8542 14.8879 22.9544 14.1862 22.6537 13.7853C22.353 13.3843 21.6513 13.2841 21.2504 13.5848C18.9449 15.3891 16.038 16.2912 13.0309 16.191C10.124 16.2912 7.21711 15.3891 4.91164 13.5848C4.51069 13.2841 3.80903 13.2841 3.50832 13.7853C3.2076 14.2865 3.2076 14.8879 3.70879 15.1886C4.71117 15.9905 5.91402 16.6922 7.11687 17.1933V17.6945C5.21235 17.3938 3.50832 16.4917 2.10499 15.1886C2.10499 11.7805 2.80665 8.47268 4.20998 5.36531C5.51307 3.66127 7.51782 2.55866 9.72305 2.05747C10.2242 1.857 10.5249 1.35581 10.4247 0.854622C10.3245 0.253196 9.82328 -0.0475166 9.22186 0.052721C6.51544 0.654147 4.10974 2.05747 2.4057 4.2627V4.36294V4.46317C0.40095 8.47268 0.200475 12.0812 0 15.5895C0 15.8903 0.100238 16.191 0.300713 16.3914C2.30546 18.4964 5.01188 19.6993 7.91877 20C8.21948 20 8.41996 19.8998 8.62043 19.6993C8.82091 19.4988 8.92114 19.2983 8.92114 18.9976V17.9952C11.5273 18.5967 14.334 18.5967 16.9402 17.9952V18.9976C16.9402 19.2983 17.0404 19.4988 17.2409 19.6993C17.4413 19.8998 17.6418 20 17.9425 20C20.8494 19.7995 23.6561 18.5967 25.6608 16.4917C25.8613 16.2912 25.9615 15.9905 25.9615 15.6898C25.7611 12.0812 25.5606 8.47268 23.6561 4.46317Z" fill="white"/>
<path d="M20.4473 5.66608C20.748 5.16489 20.5475 4.56346 20.0463 4.36299C17.8411 3.36061 15.4354 2.75919 12.9295 2.85942C10.5238 2.75919 8.01783 3.36061 5.81261 4.36299C5.41166 4.56346 5.21118 5.16489 5.41166 5.66608C5.71237 6.16726 6.31379 6.2675 6.81498 6.06703C8.7195 5.16489 10.8245 4.76394 12.9295 4.76394C15.0345 4.76394 17.2397 5.16489 19.1442 6.06703C19.2444 6.16726 19.4449 6.16726 19.6454 6.16726C19.9461 6.16726 20.2468 5.96679 20.4473 5.66608Z" fill="white"/>
</svg>
