<svg xmlns="http://www.w3.org/2000/svg" width="27" height="20" viewBox="0 0 27 20" fill="none">
  <g clip-path="url(#clip0_738_326)">
    <path d="M6.8702 11.4138C6.76919 13.131 8.08233 14.5451 9.7995 14.6462C11.5167 14.5451 12.8298 13.03 12.7288 11.3128C12.8298 9.59565 11.5167 8.0805 9.7995 7.97949C8.08233 8.18151 6.76919 9.69666 6.8702 11.4138ZM10.6076 11.4138C10.6076 12.1209 10.2035 12.727 9.69849 12.727C9.19344 12.727 8.7894 12.1209 8.7894 11.4138C8.7894 10.7068 9.29445 10.1007 9.7995 10.1007C10.3045 10.1007 10.6076 10.7068 10.6076 11.4138Z" fill="white"/>
    <path d="M16.366 8.08008C14.6489 8.18109 13.3357 9.69624 13.4367 11.4134C13.3357 13.1306 14.6489 14.5447 16.366 14.7467C18.0832 14.6457 19.3963 13.1306 19.2953 11.4134C19.3963 9.69624 18.0832 8.18109 16.366 8.08008ZM16.366 12.6255C15.861 12.6255 15.4569 12.0195 15.4569 11.3124C15.4569 10.6053 15.861 9.99927 16.366 9.99927C16.8711 9.99927 17.2751 10.6053 17.2751 11.3124C17.2751 12.0195 16.8711 12.6255 16.366 12.6255Z" fill="white"/>
    <path d="M23.8384 4.44386C23.7374 4.34285 23.7374 4.24184 23.7374 4.24184C22.0202 2.12063 19.596 0.605477 16.8687 -0.000583597C16.3636 -0.202604 15.7576 0.201437 15.6566 0.706487C15.5556 1.21154 15.8586 1.8176 16.3636 1.91861C16.3636 1.91861 16.3636 1.91861 16.4646 1.91861C18.6869 2.42366 20.7071 3.63578 22.1212 5.35295C23.4343 8.48427 24.2424 11.8176 24.2424 15.2519C22.8283 16.5651 21.1111 17.4742 19.1919 17.7772V17.3732C19.1919 17.3732 19.1919 17.3732 19.1919 17.2721C20.404 16.7671 21.6162 16.161 22.6263 15.2519C23.0303 14.9489 23.1313 14.2418 22.8283 13.8378C22.5253 13.4338 21.8182 13.3328 21.4141 13.6358C19.0909 15.454 16.1616 16.3631 13.1313 16.262C10.202 16.3631 7.27273 15.454 4.94949 13.6358C4.54545 13.3328 3.83838 13.3328 3.53535 13.8378C3.23232 14.3429 3.23232 14.9489 3.73737 15.2519C4.74747 16.06 5.9596 16.7671 7.17172 17.2721V17.7772C5.25252 17.4742 3.53535 16.5651 2.12121 15.2519C2.12121 11.8176 2.82828 8.48427 4.24242 5.35295C5.55555 3.63578 7.57576 2.52467 9.79798 2.01962C10.303 1.8176 10.6061 1.31255 10.505 0.807497C10.404 0.201437 9.89899 -0.101594 9.29293 -0.000583597C6.56566 0.605477 4.14141 2.01962 2.42424 4.24184V4.34285V4.44386C0.40404 8.48427 0.20202 12.1206 0 15.656C0 15.959 0.10101 16.262 0.30303 16.4641C2.32323 18.5853 5.0505 19.7974 7.9798 20.1004C8.28283 20.1004 8.48485 19.9994 8.68687 19.7974C8.88889 19.5954 8.9899 19.3934 8.9899 19.0903V18.0802C11.6162 18.6863 14.4444 18.6863 17.0707 18.0802V19.0903C17.0707 19.3934 17.1717 19.5954 17.3737 19.7974C17.5758 19.9994 17.7778 20.1004 18.0808 20.1004C21.0101 19.8984 23.8384 18.6863 25.8586 16.5651C26.0606 16.3631 26.1616 16.06 26.1616 15.757C25.9596 12.1206 25.7576 8.48427 23.8384 4.44386Z" fill="white"/>
    <path d="M20.6048 5.65562C20.9078 5.15057 20.7058 4.54451 20.2008 4.34249C17.9785 3.33239 15.5543 2.72633 13.029 2.82734C10.6048 2.72633 8.07954 3.33239 5.85732 4.34249C5.45328 4.54451 5.25126 5.15057 5.45328 5.65562C5.75631 6.16068 6.36237 6.26169 6.86742 6.05967C8.78661 5.15057 10.9078 4.74653 13.029 4.74653C15.1502 4.74653 17.3725 5.15057 19.2917 6.05967C19.3927 6.16068 19.5947 6.16068 19.7967 6.16068C20.0997 6.16068 20.4028 5.95866 20.6048 5.65562Z" fill="white"/>
  </g>
  <defs>
    <clipPath id="clip0_738_326">
      <rect width="26.2626" height="20" fill="white"/>
    </clipPath>
  </defs>
</svg>