<svg xmlns="http://www.w3.org/2000/svg" width="22" height="20" viewBox="0 0 22 20" fill="none">
  <path fill-rule="evenodd" clip-rule="evenodd" d="M12.8773 17.7778C12.575 17.7778 12.285 17.6608 12.0712 17.4526C11.8574 17.2443 11.7373 16.9619 11.7373 16.6674V15.5566C11.7373 14.0835 11.1366 12.6708 10.0673 11.6292C9.27092 10.8535 8.26326 10.3309 7.17607 10.1146V4.44888C7.17607 3.85978 7.41631 3.29481 7.84395 2.87825C8.27159 2.46169 8.85159 2.22767 9.45636 2.22767H17.4386C17.4708 2.22767 17.5031 2.22634 17.5353 2.22367C17.6341 2.21549 17.8067 2.2427 18.0262 2.45655C18.2532 2.67764 18.477 3.0564 18.6046 3.57516L19.715 8.98322C19.6929 9.24431 19.5765 9.49053 19.385 9.67716C19.1712 9.88541 18.8812 10.0024 18.5789 10.0024H15.1579C14.528 10.0024 14.0173 10.4999 14.0173 11.1135V16.6674C14.0173 16.9619 13.8972 17.2443 13.6834 17.4526C13.4696 17.6608 13.1796 17.7778 12.8773 17.7778ZM6.71967 0.893929C6.65533 0.810404 6.58467 0.730934 6.50799 0.656237C6.08022 0.239552 5.50005 0.00546646 4.8951 0.00546646H2.61447C2.00952 0.00546646 1.42934 0.239552 1.00158 0.656237C0.573811 1.07292 0.333496 1.63806 0.333496 2.22734V10.0027C0.333496 10.592 0.573812 11.1572 1.00158 11.5738C1.42934 11.9905 2.00952 12.2246 2.61447 12.2246H6.03541C6.94261 12.2246 7.81266 12.5757 8.45414 13.2005C9.09563 13.8254 9.45601 14.6729 9.45601 15.5566V16.6674C9.45601 17.5512 9.81647 18.3989 10.4581 19.0239C11.0997 19.6489 11.9699 20 12.8773 20C13.7847 20 14.6549 19.6489 15.2965 19.0239C15.9381 18.3989 16.2986 17.5512 16.2986 16.6674V12.2246H18.5789C19.4863 12.2246 20.3565 11.8735 20.9981 11.2485C21.6397 10.6235 22.0002 9.77584 22.0002 8.89196C22.0002 8.81879 21.9927 8.7458 21.978 8.67406L20.8377 3.1202C20.8352 3.10826 20.8326 3.09637 20.8297 3.08451C20.6286 2.24892 20.2326 1.46314 19.6393 0.885214C19.0486 0.30982 18.2633 -0.0491333 17.3967 0.00546646H9.45636C8.46379 0.00546646 7.50457 0.320578 6.71967 0.893929ZM4.89475 10.0024H2.61481V2.22767H4.89475V10.0024Z" fill="white"/>
</svg>