<svg xmlns="http://www.w3.org/2000/svg" width="24" height="24" viewBox="0 0 24 24" fill="none">
  <path d="M12 0C5.4 0 0 5.4 0 12C0 18.6 5.4 24 12 24C18.6 24 24 18.6 24 12C24 5.4 18.6 0 12 0ZM18.15 15.6C18.3 14.4 18.45 13.2 18.45 12C18.45 10.8 18.3 9.6 18.15 8.4C20.7 9.3 22.2 10.65 22.2 12C22.2 13.35 20.55 14.7 18.15 15.6ZM1.8 12C1.8 10.65 3.3 9.3 5.85 8.4C5.7 9.6 5.55 10.8 5.55 12C5.55 13.2 5.7 14.4 5.85 15.6C3.3 14.7 1.8 13.35 1.8 12ZM7.8 2.7C7.05 3.75 6.6 4.95 6.3 6.3C5.1 6.6 3.9 7.2 2.7 7.8C3.75 5.55 5.55 3.75 7.8 2.7ZM2.7 16.2C3.9 16.95 5.25 17.55 6.75 17.85H6.9C8.55 18.3 10.35 18.45 12 18.45C12.6 18.45 13.05 18.45 13.65 18.45C14.1 18.45 14.55 18 14.55 17.4C14.4 16.95 13.95 16.5 13.5 16.5C13.05 16.5 12.45 16.5 12 16.5C10.65 16.5 9.15 16.35 7.8 16.05C7.5 14.85 7.35 13.35 7.35 12C7.35 6 9.75 1.8 12 1.8C12.9 1.8 13.8 2.55 14.7 3.75C14.85 4.05 15.15 4.2 15.45 4.2C15.6 4.2 15.75 4.2 15.9 4.05C16.35 3.75 16.5 3.15 16.2 2.85C16.2 2.85 16.2 2.85 16.2 2.7C18.45 3.75 20.25 5.55 21.3 7.8C19.95 7.05 18.6 6.45 17.1 6.15C15.45 5.7 13.65 5.55 12 5.55C11.4 5.55 10.95 5.55 10.35 5.55C9.9 5.7 9.45 6 9.45 6.6C9.6 7.05 10.05 7.5 10.5 7.5C10.95 7.5 11.55 7.5 12 7.5C13.35 7.5 14.85 7.65 16.2 7.95C16.5 9.15 16.65 10.65 16.65 12C16.65 18 14.25 22.2 12 22.2C11.1 22.2 10.2 21.45 9.3 20.25C9 19.8 8.55 19.65 8.1 19.8C7.65 20.1 7.5 20.55 7.65 21V21.15C7.65 21.15 7.65 21.15 7.65 21.3C5.55 20.25 3.75 18.45 2.7 16.2ZM16.2 21.3C16.95 20.25 17.4 19.05 17.7 17.7C18.9 17.4 20.1 16.8 21.3 16.2C20.25 18.45 18.45 20.25 16.2 21.3Z" fill="white"/>
</svg>