<svg xmlns="http://www.w3.org/2000/svg" width="56" height="46" viewBox="0 0 56 46" fill="none">
  <path d="M49.441 26.6597L27.8939 48L6.34677 26.6597C4.92553 25.2767 3.80605 23.6144 3.05881 21.7775C2.31157 19.9406 1.95276 17.9689 2.00498 15.9865C2.0572 14.0041 2.51931 12.054 3.36222 10.259C4.20513 8.46398 5.41057 6.86294 6.90264 5.55668C8.39471 4.25042 10.1411 3.26725 12.0318 2.66908C13.9225 2.0709 15.9166 1.87069 17.8885 2.08104C19.8604 2.29139 21.7673 2.90775 23.4893 3.8913C25.2113 4.87486 26.711 6.2043 27.8939 7.79591C29.082 6.21585 30.5834 4.89803 32.3042 3.92491C34.025 2.9518 35.9281 2.34434 37.8945 2.14057C39.8608 1.93679 41.8481 2.14108 43.7318 2.74064C45.6156 3.34021 47.3554 4.32215 48.8422 5.62501C50.329 6.92786 51.5309 8.52359 52.3727 10.3123C53.2144 12.101 53.6779 14.0442 53.7341 16.0203C53.7903 17.9964 53.4381 19.9628 52.6994 21.7965C51.9607 23.6302 50.8514 25.2917 49.441 26.677M27.8939 7.77867L18.4333 17.2393C17.8947 17.7781 17.5921 18.5087 17.5921 19.2705C17.5921 20.0323 17.8947 20.7629 18.4333 21.3017L19.9933 22.8617C21.9756 24.844 25.1933 24.844 27.1757 22.8617L30.0486 19.9887C31.763 18.2743 34.0883 17.3112 36.5128 17.3112C38.9373 17.3112 41.2625 18.2743 42.9769 19.9887L49.4411 26.4529M29.3304 35.0717L35.0763 40.8176M36.5128 27.8893L42.2587 33.6352" stroke="white" stroke-width="4" stroke-linecap="round" stroke-linejoin="round"/>
</svg>