<svg xmlns="http://www.w3.org/2000/svg" width="18" height="16" viewBox="0 0 18 16" fill="none">
  <path d="M15.4386 8.50513L8.88075 15L2.32293 8.50513C1.89038 8.08422 1.54967 7.5783 1.32225 7.01925C1.09483 6.46019 0.985624 5.8601 1.00152 5.25676C1.01741 4.65343 1.15805 4.05992 1.41459 3.51361C1.67113 2.9673 2.038 2.48002 2.49211 2.08247C2.94622 1.68491 3.47772 1.38568 4.05316 1.20363C4.62859 1.02158 5.23548 0.960645 5.83562 1.02467C6.43576 1.08868 7.01615 1.27627 7.54023 1.57561C8.06431 1.87496 8.52073 2.27957 8.88075 2.76397C9.24234 2.28309 9.69929 1.88201 10.223 1.58584C10.7467 1.28968 11.3259 1.1048 11.9244 1.04278C12.5229 0.980762 13.1277 1.04294 13.701 1.22541C14.2743 1.40789 14.8038 1.70674 15.2563 2.10326C15.7088 2.49978 16.0746 2.98544 16.3308 3.52983C16.587 4.07423 16.7281 4.66564 16.7452 5.26706C16.7623 5.86848 16.6551 6.46695 16.4302 7.02503C16.2054 7.58311 15.8678 8.08877 15.4386 8.51038" stroke="white" stroke-width="2" stroke-linecap="round" stroke-linejoin="round"/>
</svg>