<svg xmlns="http://www.w3.org/2000/svg" width="27" height="24" viewBox="0 0 27 24" fill="none">
  <path d="M23.6892 12.7938L13.384 23L3.07889 12.7938C2.39917 12.1323 1.86376 11.3373 1.50639 10.4588C1.14901 9.5803 0.977408 8.6373 1.00238 7.6892C1.02736 6.7411 1.24837 5.80844 1.6515 4.94996C2.05463 4.09147 2.63114 3.32575 3.34474 2.70102C4.05834 2.07629 4.89356 1.60608 5.79782 1.31999C6.70207 1.03391 7.65576 0.938157 8.59883 1.03876C9.54191 1.13936 10.4539 1.43414 11.2775 1.90454C12.1011 2.37493 12.8183 3.01075 13.384 3.77196C13.9522 3.01628 14.6703 2.38601 15.4933 1.92061C16.3163 1.45521 17.2265 1.16469 18.1669 1.06723C19.1073 0.969769 20.0578 1.06747 20.9587 1.35422C21.8596 1.64097 22.6917 2.11059 23.4028 2.7337C24.1139 3.3568 24.6887 4.11998 25.0913 4.97545C25.4939 5.83093 25.7155 6.76029 25.7424 7.70538C25.7693 8.65046 25.6008 9.59093 25.2475 10.4679C24.8942 11.3449 24.3637 12.1395 23.6892 12.802M13.384 3.76371L8.85936 8.28836C8.60177 8.54603 8.45706 8.89546 8.45706 9.2598C8.45706 9.62414 8.60177 9.97356 8.85936 10.2312L9.60545 10.9773C10.5535 11.9254 12.0924 11.9254 13.0405 10.9773L14.4145 9.6033C15.2345 8.78338 16.3465 8.32275 17.5061 8.32275C18.6656 8.32275 19.7777 8.78338 20.5976 9.6033L23.6892 12.6948M14.0711 16.8169L16.8191 19.5649M17.5061 13.3819L20.2541 16.1299" stroke="white" stroke-width="2" stroke-linecap="round" stroke-linejoin="round"/>
</svg>