<svg xmlns="http://www.w3.org/2000/svg" width="24" height="24" viewBox="0 0 24 24" fill="none">
  <g clip-path="url(#clip0_738_319)">
    <path d="M3.24 0C1.44 0 0 1.44 0 3.24C0 5.04 1.44 6.48 3.24 6.48C5.04 6.48 6.48 5.04 6.48 3.24C6.48 1.44 5.04 0 3.24 0ZM3.24 4.56C2.52 4.56 1.8 3.96 1.8 3.12C1.8 2.28 2.4 1.68 3.24 1.68C4.08 1.68 4.68 2.28 4.68 3.12C4.68 3.96 3.96 4.56 3.24 4.56Z" fill="white"/>
    <path d="M5.52 7.44043H0.96C0.36 7.44043 0 7.80043 0 8.28043C0 8.76043 0.36 9.24043 0.96 9.24043H4.68V22.2004H1.8V12.0004C1.8 11.5204 1.44 11.0404 0.84 11.0404C0.24 11.0404 0 11.5204 0 12.0004V23.0404C0 23.6404 0.36 24.0004 0.96 24.0004H5.52C6 24.0004 6.48 23.6404 6.48 23.0404V8.28043C6.48 7.80043 6 7.44043 5.52 7.44043Z" fill="white"/>
    <path d="M22.4419 8.87934C21.3619 7.79934 19.9219 7.31934 18.4819 7.31934H17.5219C16.2019 7.31934 15.0019 7.55934 13.8019 8.15934C13.8019 7.67934 13.3219 7.31934 12.8419 7.31934H8.2819C7.8019 7.31934 7.3219 7.67934 7.3219 8.27934V23.0393C7.3219 23.5193 7.6819 23.9993 8.2819 23.9993H12.8419C13.3219 23.9993 13.8019 23.6393 13.8019 23.0393V14.7593C13.8019 13.7993 14.6419 12.9593 15.6019 12.9593C16.5619 12.9593 17.4019 13.7993 17.4019 14.7593V23.0393C17.4019 23.5193 17.7619 23.9993 18.3619 23.9993H22.9219C23.4019 23.9993 23.8819 23.6393 23.8819 23.0393V12.8393C24.0019 11.3993 23.5219 9.95934 22.4419 8.87934ZM22.2019 22.1993H19.4419V14.7593C19.4419 12.7193 17.7619 11.0393 15.7219 11.0393C13.6819 11.0393 12.0019 12.7193 12.0019 14.7593V22.1993H9.2419V9.23934H12.0019V10.1993C12.0019 10.5593 12.2419 10.9193 12.6019 11.0393C12.9619 11.1593 13.3219 11.1593 13.5619 10.7993C14.4019 9.83934 15.1219 9.23934 17.5219 9.23934H18.4819C19.4419 9.23934 20.4019 9.59934 21.1219 10.1993C21.8419 10.9193 22.2019 11.8793 22.0819 12.8393V22.1993H22.2019Z" fill="white"/>
  </g>
  <defs>
    <clipPath id="clip0_738_319">
      <rect width="24" height="24" fill="white"/>
    </clipPath>
  </defs>
</svg>