<svg xmlns="http://www.w3.org/2000/svg" width="18" height="18" viewBox="0 0 18 18" fill="none">
  <path fill-rule="evenodd" clip-rule="evenodd" d="M3.30711 3.30711C2.42511 4.1891 2 5.79285 2 9C2 12.2071 2.42511 13.8109 3.30711 14.6929C4.1891 15.5749 5.79285 16 9 16C12.2071 16 13.8109 15.5749 14.6929 14.6929C15.5749 13.8109 16 12.2071 16 9C16 5.79285 15.5749 4.1891 14.6929 3.30711C13.8109 2.42511 12.2071 2 9 2C5.79285 2 4.1891 2.42511 3.30711 3.30711ZM1.89289 1.89289C3.4109 0.374886 5.80715 0 9 0C12.1929 0 14.5891 0.374886 16.1071 1.89289C17.6251 3.4109 18 5.80715 18 9C18 12.1929 17.6251 14.5891 16.1071 16.1071C14.5891 17.6251 12.1929 18 9 18C5.80715 18 3.4109 17.6251 1.89289 16.1071C0.374886 14.5891 0 12.1929 0 9C0 5.80715 0.374886 3.4109 1.89289 1.89289ZM8 6.33333C8 5.78105 8.44772 5.33333 9 5.33333H9.00889C9.56117 5.33333 10.0089 5.78105 10.0089 6.33333C10.0089 6.88562 9.56117 7.33333 9.00889 7.33333H9C8.44772 7.33333 8 6.88562 8 6.33333ZM7.11111 9C7.11111 8.44772 7.55883 8 8.11111 8H9C9.55229 8 10 8.44772 10 9V11.5617C10.5 11.6169 10.8889 12.0408 10.8889 12.5556C10.8889 13.1078 10.4412 13.5556 9.88889 13.5556H9C8.44772 13.5556 8 13.1078 8 12.5556V9.9939C7.50001 9.93863 7.11111 9.51473 7.11111 9Z" fill="#FCA729" fill-opacity="0.5"/>
</svg>