<svg width="15" height="11" viewBox="0 0 15 11" fill="none" xmlns="http://www.w3.org/2000/svg">
<path fill-rule="evenodd" clip-rule="evenodd" d="M14.7404 0.254355C15.0865 0.593494 15.0865 1.14335 14.7404 1.48249L10.6399 5.5L14.7404 9.51751C15.0865 9.85665 15.0865 10.4065 14.7404 10.7456C14.3942 11.0848 13.833 11.0848 13.4869 10.7456L8.75961 6.11407C8.41346 5.77493 8.41346 5.22507 8.75961 4.88593L13.4869 0.254355C13.833 -0.0847848 14.3942 -0.0847849 14.7404 0.254355Z" fill="white"/>
<path fill-rule="evenodd" clip-rule="evenodd" d="M6.24039 0.254355C6.58654 0.593494 6.58654 1.14335 6.24039 1.48249L2.13987 5.5L6.24039 9.51751C6.58654 9.85665 6.58654 10.4065 6.24039 10.7456C5.89424 11.0848 5.33303 11.0848 4.98688 10.7456L0.25961 6.11407C-0.0865357 5.77493 -0.0865357 5.22507 0.25961 4.88593L4.98688 0.254355C5.33303 -0.0847848 5.89424 -0.0847849 6.24039 0.254355Z" fill="white" fill-opacity="0.5"/>
</svg>
