<svg xmlns="http://www.w3.org/2000/svg" width="22" height="20" viewBox="0 0 22 20" fill="none">
  <path fill-rule="evenodd" clip-rule="evenodd" d="M12.5438 2.22221C12.2415 2.22221 11.9515 2.3392 11.7377 2.54745C11.5239 2.7557 11.4038 3.03814 11.4038 3.33265V4.44342C11.4038 5.91648 10.8031 7.32921 9.73378 8.37082C8.93743 9.14654 7.92976 9.66911 6.84257 9.88535V15.5511C6.84257 16.1402 7.08282 16.7052 7.51046 17.1217C7.93809 17.5383 8.51809 17.7723 9.12286 17.7723H17.1051C17.1373 17.7723 17.1696 17.7737 17.2018 17.7763C17.3006 17.7845 17.4732 17.7573 17.6927 17.5434C17.9197 17.3224 18.1435 16.9436 18.2711 16.4248L19.3815 11.0168C19.3594 10.7557 19.2431 10.5095 19.0515 10.3228C18.8377 10.1146 18.5477 9.9976 18.2454 9.9976H14.8244C14.1945 9.9976 13.6838 9.50014 13.6838 8.8865V3.33265C13.6838 3.03814 13.5637 2.7557 13.3499 2.54745C13.1361 2.3392 12.8461 2.22221 12.5438 2.22221ZM6.38617 19.1061C6.32184 19.1896 6.25118 19.2691 6.17449 19.3438C5.74673 19.7604 5.16655 19.9945 4.5616 19.9945H2.28097C1.67602 19.9945 1.09585 19.7604 0.668081 19.3438C0.240315 18.9271 0 18.3619 0 17.7727V9.99727C0 9.40799 0.240316 8.84285 0.668081 8.42616C1.09585 8.00948 1.67602 7.77539 2.28097 7.77539H5.70192C6.60912 7.77539 7.47916 7.42435 8.12065 6.79948C8.76213 6.17461 9.12252 5.32711 9.12252 4.44342V3.33265C9.12252 2.44877 9.48297 1.6011 10.1246 0.976109C10.7662 0.351117 11.6364 0 12.5438 0C13.4512 0 14.3214 0.351117 14.963 0.976109C15.6046 1.6011 15.9651 2.44877 15.9651 3.33265V7.77539H18.2454C19.1528 7.77539 20.023 8.12651 20.6646 8.7515C21.3062 9.37649 21.6667 10.2242 21.6667 11.108C21.6667 11.1812 21.6592 11.2542 21.6445 11.3259L20.5042 16.8798C20.5017 16.8917 20.4991 16.9036 20.4962 16.9155C20.2951 17.7511 19.8991 18.5369 19.3058 19.1148C18.7151 19.6902 17.9298 20.0491 17.0632 19.9945H9.12286C8.13029 19.9945 7.17108 19.6794 6.38617 19.1061ZM4.56126 9.9976H2.28132V17.7723H4.56126V9.9976Z" fill="white"/>
</svg>