<svg xmlns="http://www.w3.org/2000/svg" width="16" height="16" viewBox="0 0 16 16" fill="none">
  <path fill-rule="evenodd" clip-rule="evenodd" d="M1.43039 1.43039C2.49718 0.363602 4.05137 0 5.9 0H7.3C7.85228 0 8.3 0.447715 8.3 1C8.3 1.55228 7.85228 2 7.3 2H5.9C4.24863 2 3.35282 2.3364 2.84461 2.84461C2.3364 3.35282 2 4.24863 2 5.9V10.1C2 11.7514 2.3364 12.6472 2.84461 13.1554C3.35282 13.6636 4.24863 14 5.9 14H10.1C11.7514 14 12.6472 13.6636 13.1554 13.1554C13.6636 12.6472 14 11.7514 14 10.1V8.7C14 8.14771 14.4477 7.7 15 7.7C15.5523 7.7 16 8.14771 16 8.7V10.1C16 11.9486 15.6364 13.5028 14.5696 14.5696C13.5028 15.6364 11.9486 16 10.1 16H5.9C4.05137 16 2.49718 15.6364 1.43039 14.5696C0.363602 13.5028 0 11.9486 0 10.1V5.9C0 4.05137 0.363602 2.49718 1.43039 1.43039ZM10.6406 1C10.6406 0.447715 11.0883 0 11.6406 0H15.0006C15.5529 0 16.0006 0.447715 16.0006 1V4.36C16.0006 4.91228 15.5529 5.36 15.0006 5.36C14.4483 5.36 14.0006 4.91228 14.0006 4.36V3.41433L9.40828 8.00668C9.01775 8.3972 8.38459 8.3972 7.99406 8.00668C7.60354 7.61615 7.60354 6.98299 7.99407 6.59246L12.5865 2H11.6406C11.0883 2 10.6406 1.55228 10.6406 1Z" fill="#12CFA7" fill-opacity="0.5"/>
</svg>