<svg xmlns="http://www.w3.org/2000/svg" width="20" height="18" viewBox="0 0 20 18" fill="none">
  <path d="M5.99342 10.0092L8.98948 8.01184L10.9868 10.0092L13.9829 8.01184M1 17L2.29829 13.1051C1.17621 11.4456 0.770296 9.48032 1.15601 7.57472C1.54173 5.66912 2.69283 3.95286 4.3953 2.74505C6.09776 1.53724 8.23573 0.920078 10.4117 1.0083C12.5877 1.09653 14.6535 1.88414 16.2252 3.2247C17.7969 4.56526 18.7675 6.36755 18.9564 8.29645C19.1454 10.2254 18.5398 12.1496 17.2525 13.7115C15.9651 15.2733 14.0834 16.3664 11.9574 16.7876C9.8313 17.2088 7.6055 16.9294 5.69382 16.0013L1 17Z" stroke="white" stroke-width="2" stroke-linecap="round" stroke-linejoin="round"/>
</svg>