<svg xmlns="http://www.w3.org/2000/svg" width="36" height="36" viewBox="0 0 36 36" fill="none">
  <path d="M18 0C19.4002 8.5108e-05 20.7524 0.510126 21.8039 1.43477L22.0811 1.6958L23.3377 2.95234C23.6826 3.29494 24.1329 3.51122 24.6159 3.56621L24.8589 3.58061H26.6591C28.1303 3.58053 29.5458 4.1433 30.6153 5.15353C31.6848 6.16375 32.3272 7.54486 32.4109 9.01364L32.4199 9.34128V11.1415C32.4199 11.6275 32.5855 12.101 32.8843 12.479L33.0464 12.6591L34.3011 13.9156C35.3412 14.9497 35.9476 16.3416 35.9968 17.8074C36.0459 19.2732 35.5341 20.7026 34.5658 21.8041L34.3047 22.0813L33.0482 23.3379C32.7056 23.6827 32.4893 24.1331 32.4343 24.616L32.4199 24.8591V26.6593C32.42 28.1304 31.8572 29.5459 30.8469 30.6154C29.8367 31.6848 28.4556 32.3273 26.9868 32.4109L26.6591 32.4199H24.8589C24.3735 32.4201 23.9023 32.5837 23.5213 32.8844L23.3413 33.0464L22.0847 34.3012C21.0506 35.3412 19.6587 35.9476 18.1929 35.9968C16.727 36.0459 15.2976 35.5342 14.1961 34.5658L13.9189 34.3048L12.6623 33.0482C12.3174 32.7056 11.8671 32.4893 11.3841 32.4343L11.1411 32.4199H9.34087C7.86968 32.42 6.45422 31.8573 5.38473 30.847C4.31524 29.8368 3.67279 28.4557 3.58912 26.9869L3.58012 26.6593V24.8591C3.57996 24.3737 3.41634 23.9025 3.11565 23.5215L2.95363 23.3415L1.69887 22.0849C0.65884 21.0508 0.0524153 19.659 0.00324177 18.1931C-0.0459318 16.7273 0.465849 15.2979 1.43423 14.1964L1.69527 13.9192L2.95183 12.6627C3.29444 12.3178 3.51072 11.8675 3.56571 11.3845L3.58012 11.1415V9.34128L3.58912 9.01364C3.6695 7.60128 4.26677 6.26787 5.26709 5.26757C6.26742 4.26726 7.60084 3.67 9.01322 3.58961L9.34087 3.58061H11.1411C11.6265 3.58045 12.0977 3.41684 12.4787 3.11616L12.6587 2.95414L13.9153 1.6994C14.4505 1.16093 15.087 0.733594 15.788 0.44195C16.489 0.150305 17.2407 0.00010995 18 0Z" fill="white" fill-opacity="0.2"/>
</svg>