<svg xmlns="http://www.w3.org/2000/svg" width="22" height="18" viewBox="0 0 22 18" fill="none">
  <path d="M1.25938 10.2782L1.33341 10.1683L5.79773 3.56659C5.86298 3.46991 6.01636 3.47993 6.06575 3.58491C6.81154 5.16494 7.45512 7.12993 7.15362 8.35326C7.02491 8.85657 6.67227 9.53826 6.27554 10.1683C6.22444 10.2599 6.16799 10.3499 6.10804 10.4366C6.07986 10.4766 6.03223 10.4999 5.98109 10.4999H1.38985C1.2664 10.4999 1.19413 10.3733 1.25938 10.2782Z" fill="white"/>
  <path d="M21.1579 11.505V12.55C21.1579 12.61 21.1191 12.6633 21.0627 12.6867C20.7171 12.8267 19.534 13.34 19.0421 13.9867C17.7867 15.6383 16.8276 18 14.6836 18H5.73906C2.56892 18 0 15.5633 0 12.5567V12.46C0 12.38 0.0687596 12.315 0.153384 12.315H5.1396C5.23833 12.315 5.31064 12.4017 5.30183 12.4933C5.26655 12.8 5.3265 13.1133 5.47989 13.3983C5.77609 13.9667 6.3897 14.3217 7.05262 14.3217H9.52105V12.5H7.08084C6.95564 12.5 6.88162 12.3633 6.95388 12.2667C6.98035 12.2283 7.01033 12.1883 7.04206 12.1433C7.27301 11.8333 7.60273 11.3517 7.93066 10.8033C8.1546 10.4333 8.37148 10.0383 8.54603 9.64167C8.5813 9.57001 8.60949 9.49668 8.63771 9.42498C8.6853 9.29834 8.73469 9.17999 8.76993 9.06168C8.8052 8.96168 8.83342 8.85667 8.86164 8.75833C8.94451 8.42167 8.97975 8.065 8.97975 7.69499C8.97975 7.55 8.9727 7.39834 8.95859 7.25332C8.95157 7.09499 8.9304 6.93666 8.90924 6.77833C8.89513 6.63832 8.8687 6.5 8.84048 6.35501C8.8052 6.14333 8.75585 5.93334 8.69941 5.72167L8.68004 5.64167C8.63771 5.49668 8.60243 5.35833 8.55308 5.21334C8.41377 4.75833 8.25333 4.315 8.08409 3.9C8.02238 3.735 7.95183 3.57668 7.88132 3.41835C7.77728 3.17999 7.67149 2.96334 7.57451 2.75833C7.52516 2.665 7.48283 2.57999 7.44054 2.49333C7.39291 2.39499 7.34356 2.29668 7.29417 2.20332C7.25893 2.13165 7.21836 2.065 7.19014 1.99834L6.88867 1.47167C6.84634 1.4 6.91685 1.315 6.99972 1.33666L8.88632 1.82001H8.89162C8.89513 1.82001 8.89688 1.82167 8.89867 1.82167L9.14724 1.88666L9.42056 1.95999L9.52105 1.98666V0.926676C9.52105 0.414997 9.95477 0 10.4908 0C10.7588 0 11.0021 0.103316 11.1767 0.271665C11.3512 0.440014 11.4605 0.670007 11.4605 0.926676V2.5L11.6615 2.55332C11.6774 2.55833 11.6932 2.565 11.7074 2.57498C11.7567 2.60999 11.8273 2.66168 11.9172 2.72498C11.9877 2.77833 12.0635 2.84333 12.1552 2.90999C12.3368 3.04834 12.5537 3.22668 12.7917 3.43165C12.8552 3.48335 12.9169 3.53666 12.9733 3.59001C13.2801 3.85999 13.6239 4.17668 13.9519 4.52668C14.0435 4.62498 14.1335 4.72498 14.2251 4.82999C14.3169 4.93666 14.4138 5.04167 14.4985 5.14668C14.6095 5.28666 14.7294 5.43165 14.8334 5.58335C14.8828 5.65501 14.9392 5.72833 14.9868 5.8C15.1208 5.99167 15.239 6.19001 15.3518 6.38832C15.3994 6.47999 15.4488 6.57999 15.4911 6.67833C15.6163 6.94333 15.715 7.21334 15.7785 7.48335C15.7979 7.54167 15.812 7.60501 15.819 7.66168V7.67498C15.8402 7.75501 15.8473 7.84001 15.8543 7.92668C15.8825 8.20332 15.8684 8.47999 15.8049 8.75833C15.7785 8.87668 15.7432 8.98832 15.7009 9.10667C15.6586 9.22001 15.6163 9.33832 15.5616 9.45C15.4558 9.68165 15.3307 9.91334 15.1825 10.13C15.135 10.21 15.0785 10.295 15.0221 10.375C14.9604 10.46 14.8969 10.54 14.8405 10.6183C14.7629 10.7183 14.6801 10.8233 14.5954 10.9167C14.5196 11.015 14.442 11.1133 14.3574 11.2C14.2392 11.3317 14.1264 11.4567 14.0083 11.5767C13.9377 11.655 13.8619 11.735 13.7844 11.8067C13.7085 11.8867 13.631 11.9583 13.5604 12.025C13.4423 12.1367 13.3436 12.2233 13.2607 12.295L13.0668 12.4633C13.0385 12.4867 13.0015 12.5 12.9627 12.5H11.4605V14.3217H13.3506C13.7738 14.3217 14.1758 14.18 14.5002 13.92C14.6113 13.8283 15.0962 13.4317 15.6692 12.8333C15.6886 12.8133 15.7132 12.7983 15.7415 12.7917L20.9622 11.365C21.0592 11.3383 21.1579 11.4083 21.1579 11.505Z" fill="white"/>
</svg>