<svg xmlns="http://www.w3.org/2000/svg" width="18" height="18" viewBox="0 0 18 18" fill="none">
  <path d="M11.6667 3.66667L14.3333 6.33333M3.66667 17L17 3.66667L14.3333 1L1 14.3333L3.66667 17ZM6.33333 1C6.33333 1.4715 6.52063 1.92368 6.85403 2.25708C7.18743 2.59048 7.63962 2.77778 8.11111 2.77778C7.63962 2.77778 7.18743 2.96508 6.85403 3.29848C6.52063 3.63187 6.33333 4.08406 6.33333 4.55556C6.33333 4.08406 6.14603 3.63187 5.81263 3.29848C5.47924 2.96508 5.02705 2.77778 4.55556 2.77778C5.02705 2.77778 5.47924 2.59048 5.81263 2.25708C6.14603 1.92368 6.33333 1.4715 6.33333 1ZM15.2222 9.88889C15.2222 10.3604 15.4095 10.8126 15.7429 11.146C16.0763 11.4794 16.5285 11.6667 17 11.6667C16.5285 11.6667 16.0763 11.854 15.7429 12.1874C15.4095 12.5208 15.2222 12.9729 15.2222 13.4444C15.2222 12.9729 15.0349 12.5208 14.7015 12.1874C14.3681 11.854 13.9159 11.6667 13.4444 11.6667C13.9159 11.6667 14.3681 11.4794 14.7015 11.146C15.0349 10.8126 15.2222 10.3604 15.2222 9.88889Z" stroke="white" stroke-width="2" stroke-linecap="round" stroke-linejoin="round"/>
</svg>