<svg xmlns="http://www.w3.org/2000/svg" width="15" height="18" viewBox="0 0 15 18" fill="none">
  <path d="M9 1V4.55556C9 4.7913 9.09365 5.0174 9.26035 5.18409C9.42705 5.35079 9.65314 5.44444 9.88889 5.44444H13.4444M9 1H2.77778C2.30628 1 1.8541 1.1873 1.5207 1.5207C1.1873 1.8541 1 2.30628 1 2.77778V15.2222C1 15.6937 1.1873 16.1459 1.5207 16.4793C1.8541 16.8127 2.30628 17 2.77778 17H11.6667C12.1382 17 12.5903 16.8127 12.9237 16.4793C13.2571 16.1459 13.4444 15.6937 13.4444 15.2222V5.44444M9 1L13.4444 5.44444M9 8.11111H6.77778C6.42416 8.11111 6.08502 8.25159 5.83497 8.50164C5.58492 8.75168 5.44444 9.09082 5.44444 9.44444C5.44444 9.79807 5.58492 10.1372 5.83497 10.3873C6.08502 10.6373 6.42416 10.7778 6.77778 10.7778H7.66667C8.02029 10.7778 8.35943 10.9183 8.60948 11.1683C8.85952 11.4184 9 11.7575 9 12.1111C9 12.4647 8.85952 12.8039 8.60948 13.0539C8.35943 13.304 8.02029 13.4444 7.66667 13.4444H5.44444M7.22222 13.4444V14.3333M7.22222 7.22222V8.11111" stroke="white" stroke-width="2" stroke-linecap="round" stroke-linejoin="round"/>
</svg>