<svg xmlns="http://www.w3.org/2000/svg" width="22" height="16" viewBox="0 0 22 16" fill="none">
  <path d="M4.87292 6.38076C4.63458 6.38076 4.40585 6.4171 4.1782 6.45023C4.25195 6.20227 4.32783 5.95003 4.44967 5.72345C4.57152 5.39425 4.76177 5.10888 4.95094 4.82138C5.10913 4.51035 5.38808 4.2998 5.59329 4.03367C5.80812 3.77502 6.10098 3.60294 6.33291 3.38811C6.56056 3.16366 6.85876 3.05144 7.09603 2.89325C7.344 2.7511 7.55989 2.59399 7.79076 2.51917L8.36684 2.2819L8.87345 2.07134L8.35509 0L7.71701 0.153907C7.51287 0.20521 7.26384 0.265063 6.9806 0.336673C6.69096 0.390113 6.38207 0.53654 6.03792 0.67014C5.69804 0.82191 5.30472 0.924516 4.93919 1.1682C4.57152 1.4012 4.1472 1.59572 3.77312 1.90782C3.4108 2.22953 2.97366 2.50848 2.65088 2.91784C2.29817 3.30047 1.94974 3.70234 1.67933 4.15979C1.36617 4.59586 1.15348 5.07468 0.929034 5.54816C0.725961 6.02164 0.562434 6.50581 0.428833 6.97608C0.175527 7.91877 0.0622335 8.81443 0.0184126 9.58076C-0.0179268 10.3482 0.0034493 10.9862 0.0483391 11.448C0.0643711 11.666 0.0942977 11.8776 0.115674 12.024L0.142394 12.2036L0.170183 12.1972C0.360281 13.0852 0.797895 13.9012 1.4324 14.5509C2.06691 15.2006 2.87238 15.6573 3.75564 15.8683C4.63889 16.0794 5.56384 16.036 6.42349 15.7433C7.28314 15.4506 8.04236 14.9205 8.61332 14.2143C9.18427 13.5082 9.54364 12.6548 9.64985 11.7529C9.75606 10.851 9.60477 9.93748 9.21348 9.11799C8.82218 8.2985 8.20688 7.60653 7.43875 7.12213C6.67061 6.63774 5.78104 6.3807 4.87292 6.38076ZM16.6298 6.38076C16.3914 6.38076 16.1627 6.4171 15.935 6.45023C16.0088 6.20227 16.0847 5.95003 16.2065 5.72345C16.3284 5.39425 16.5186 5.10888 16.7078 4.82138C16.866 4.51035 17.1449 4.2998 17.3501 4.03367C17.565 3.77502 17.8578 3.60294 18.0898 3.38811C18.3174 3.16366 18.6156 3.05144 18.8529 2.89325C19.1008 2.7511 19.3167 2.59399 19.5476 2.51917L20.1237 2.2819L20.6303 2.07134L20.1119 0L19.4739 0.153907C19.2697 0.20521 19.0207 0.265063 18.7374 0.336673C18.4478 0.390113 18.1389 0.53654 17.7948 0.67014C17.456 0.822979 17.0616 0.924515 16.696 1.16927C16.3284 1.40227 15.904 1.59679 15.53 1.90888C15.1676 2.23059 14.7305 2.50955 14.4077 2.91784C14.055 3.30047 13.7066 3.70234 13.4362 4.15979C13.123 4.59586 12.9103 5.07468 12.6859 5.54816C12.4828 6.02164 12.3193 6.50581 12.1857 6.97608C11.9324 7.91877 11.8191 8.81443 11.7753 9.58076C11.7389 10.3482 11.7603 10.9862 11.8052 11.448C11.8212 11.666 11.8511 11.8776 11.8725 12.024L11.8992 12.2036L11.927 12.1972C12.1171 13.0852 12.5547 13.9012 13.1892 14.5509C13.8238 15.2006 14.6292 15.6573 15.5125 15.8683C16.3957 16.0794 17.3207 16.036 18.1803 15.7433C19.04 15.4506 19.7992 14.9205 20.3702 14.2143C20.9411 13.5082 21.3005 12.6548 21.4067 11.7529C21.5129 10.851 21.3616 9.93748 20.9703 9.11799C20.579 8.2985 19.9637 7.60653 19.1956 7.12213C18.4275 6.63774 17.5379 6.3807 16.6298 6.38076Z" fill="white"/>
</svg>