<svg xmlns="http://www.w3.org/2000/svg" width="48" height="42" viewBox="0 0 48 42" fill="none">
  <g filter="url(#filter0_d_738_1753)">
    <mask id="path-1-inside-1_738_1753" fill="white">
      <path fill-rule="evenodd" clip-rule="evenodd" d="M14.4897 17.7108C12.9334 16.4479 11.3839 15.0227 9.91 13.4441C15.0465 7.94491 23.4369 4 27.505 4C37.2227 4 45.1 11.6113 45.1 21C45.1 30.3887 37.2227 38 27.505 38C22.0341 38 12.9624 32.7072 6 25.25C8.71333 22.3448 11.6222 19.7796 14.4897 17.7108Z"/>
    </mask>
    <path fill-rule="evenodd" clip-rule="evenodd" d="M14.4897 17.7108C12.9334 16.4479 11.3839 15.0227 9.91 13.4441C15.0465 7.94491 23.4369 4 27.505 4C37.2227 4 45.1 11.6113 45.1 21C45.1 30.3887 37.2227 38 27.505 38C22.0341 38 12.9624 32.7072 6 25.25C8.71333 22.3448 11.6222 19.7796 14.4897 17.7108Z" fill="#12CFA7"/>
    <path d="M9.91 13.4441L8.4484 12.0789L7.17351 13.4438L8.44814 14.809L9.91 13.4441ZM14.4897 17.7108L15.6599 19.3328L17.7788 17.804L15.7499 16.1578L14.4897 17.7108ZM27.505 4V6V4ZM6 25.25L4.53835 23.8849L3.26359 25.2498L4.53812 26.6149L6 25.25ZM8.44814 14.809C9.98888 16.4592 11.6065 17.9468 13.2296 19.2639L15.7499 16.1578C14.2603 14.949 12.7789 13.5862 11.3719 12.0792L8.44814 14.809ZM27.505 2C24.9903 2 21.5319 3.16113 18.1921 4.88198C14.788 6.63594 11.2067 9.12588 8.4484 12.0789L11.3716 14.8093C13.7498 12.2631 16.9319 10.031 20.0242 8.43773C23.1807 6.81133 25.9516 6 27.505 6V2ZM47.1 21C47.1 10.4425 38.2619 2 27.505 2V6C36.1835 6 43.1 12.7801 43.1 21H47.1ZM27.505 40C38.2619 40 47.1 31.5575 47.1 21H43.1C43.1 29.2199 36.1835 36 27.505 36V40ZM4.53812 26.6149C8.14545 30.4786 12.3029 33.788 16.2954 36.1439C20.2252 38.4629 24.2352 40 27.505 40V36C25.3039 36 22.0425 34.8907 18.3282 32.699C14.6765 30.5442 10.8169 27.4786 7.46188 23.8851L4.53812 26.6149ZM13.3196 16.0889C10.3402 18.2383 7.33465 20.8909 4.53835 23.8849L7.46165 26.6151C10.092 23.7988 12.9041 21.321 15.6599 19.3328L13.3196 16.0889Z" fill="white" mask="url(#path-1-inside-1_738_1753)"/>
  </g>
  <defs>
    <filter id="filter0_d_738_1753" x="0" y="0" width="47.1001" height="42" filterUnits="userSpaceOnUse" color-interpolation-filters="sRGB">
      <feFlood flood-opacity="0" result="BackgroundImageFix"/>
      <feColorMatrix in="SourceAlpha" type="matrix" values="0 0 0 0 0 0 0 0 0 0 0 0 0 0 0 0 0 0 127 0" result="hardAlpha"/>
      <feOffset dx="-2"/>
      <feGaussianBlur stdDeviation="2"/>
      <feComposite in2="hardAlpha" operator="out"/>
      <feColorMatrix type="matrix" values="0 0 0 0 0 0 0 0 0 0 0 0 0 0 0 0 0 0 0.25 0"/>
      <feBlend mode="normal" in2="BackgroundImageFix" result="effect1_dropShadow_738_1753"/>
      <feBlend mode="normal" in="SourceGraphic" in2="effect1_dropShadow_738_1753" result="shape"/>
    </filter>
  </defs>
</svg>