<svg xmlns="http://www.w3.org/2000/svg" width="16" height="14" viewBox="0 0 16 14" fill="none">
  <path d="M14.6706 7.50513L8.0074 14L1.34419 7.50513C0.904689 7.08422 0.558501 6.5783 0.327425 6.01925C0.0963497 5.46019 -0.0146075 4.8601 0.00154042 4.25676C0.0176884 3.65343 0.160592 3.05992 0.421252 2.51361C0.681912 1.9673 1.05468 1.48002 1.51609 1.08247C1.97749 0.68491 2.51754 0.385684 3.10222 0.203632C3.6869 0.0215798 4.30355 -0.0393547 4.91333 0.024665C5.52312 0.0886847 6.11283 0.276272 6.64533 0.575614C7.17783 0.874956 7.64159 1.27957 8.0074 1.76397C8.3748 1.28309 8.83909 0.882008 9.37123 0.585843C9.90337 0.289677 10.4919 0.1048 11.1 0.0427809C11.708 -0.0192382 12.3226 0.0429365 12.9051 0.225414C13.4876 0.407891 14.0256 0.706742 14.4854 1.10326C14.9452 1.49978 15.3169 1.98544 15.5772 2.52983C15.8375 3.07423 15.9808 3.66564 15.9982 4.26706C16.0156 4.86848 15.9067 5.46695 15.6782 6.02503C15.4498 6.58311 15.1068 7.08877 14.6706 7.51038" fill="#E40C33"/>
</svg>