<svg xmlns="http://www.w3.org/2000/svg" width="18" height="18" viewBox="0 0 18 18" fill="none">
  <path d="M5.44422 8.11111C4.44289 8.11116 3.47092 8.44935 2.68582 9.07086C1.90072 9.69238 1.34851 10.5608 1.11867 11.5354C0.888828 12.51 0.994834 13.5337 1.4195 14.4405C1.84418 15.3473 2.56263 16.0841 3.45842 16.5316C4.35422 16.979 5.37487 17.1109 6.35496 16.9057C7.33505 16.7006 8.21716 16.1705 8.85831 15.4014C9.49947 14.6322 9.86211 13.6691 9.88747 12.6681C9.91282 11.6671 9.5994 10.6868 8.998 9.88622M9.00156 15.2249C9.45647 15.8305 10.0586 16.3098 10.7508 16.6173C11.443 16.9248 12.2023 17.0503 12.9567 16.9818C13.711 16.9134 14.4353 16.6533 15.0609 16.2262C15.6865 15.7992 16.1925 15.2194 16.531 14.5418C16.8695 13.8642 17.0292 13.1113 16.995 12.3547C16.9608 11.598 16.7337 10.8627 16.3354 10.2184C15.9371 9.57415 15.3808 9.04238 14.7192 8.67357C14.0576 8.30476 13.3128 8.11115 12.5553 8.11111M4.55534 5.44444C4.55534 6.62318 5.02359 7.75364 5.85708 8.58714C6.69058 9.42063 7.82104 9.88889 8.99978 9.88889C10.1785 9.88889 11.309 9.42063 12.1425 8.58714C12.976 7.75364 13.4442 6.62318 13.4442 5.44444C13.4442 4.2657 12.976 3.13524 12.1425 2.30175C11.309 1.46825 10.1785 1 8.99978 1C7.82104 1 6.69058 1.46825 5.85708 2.30175C5.02359 3.13524 4.55534 4.2657 4.55534 5.44444Z" stroke="white" stroke-width="2" stroke-linecap="round" stroke-linejoin="round"/>
</svg>