<svg xmlns="http://www.w3.org/2000/svg" width="16" height="16" viewBox="0 0 16 16" fill="none">
  <path d="M15.0262 7.12336C14.8118 5.58067 14.0961 4.15126 12.9894 3.05532C11.8828 1.95938 10.4464 1.25771 8.90172 1.05839C7.35701 0.859076 5.78961 1.17317 4.44098 1.95229C3.09234 2.73142 2.03728 3.93235 1.43832 5.37009M1 1.86354V5.37009H4.50655M1 8.87664C1.21439 10.4193 1.93005 11.8487 3.03674 12.9447C4.14344 14.0406 5.57977 14.7423 7.12448 14.9416C8.66919 15.1409 10.2366 14.8268 11.5852 14.0477C12.9339 13.2686 13.9889 12.0677 14.5879 10.6299M15.0262 14.1365V10.6299H11.5196" stroke="white" stroke-width="1.5" stroke-linecap="round" stroke-linejoin="round"/>
</svg>