<svg xmlns="http://www.w3.org/2000/svg" width="16" height="16" viewBox="0 0 16 16" fill="none">
  <path fill-rule="evenodd" clip-rule="evenodd" d="M7.65017 2C4.52964 2 2 4.52961 2 7.65C2 10.7704 4.52964 13.3 7.65017 13.3C10.7707 13.3 13.3003 10.7704 13.3003 7.65C13.3003 4.52961 10.7707 2 7.65017 2ZM0 7.65C0 3.425 3.42512 0 7.65017 0C11.8752 0 15.3003 3.425 15.3003 7.65C15.3003 9.54135 14.614 11.2724 13.4767 12.6076C13.772 12.5711 14.0805 12.6662 14.3072 12.8929L15.7072 14.2929C16.0978 14.6834 16.0978 15.3166 15.7072 15.7071C15.3167 16.0976 14.6836 16.0976 14.293 15.7071L12.893 14.3071C12.6663 14.0804 12.5712 13.7719 12.6077 13.4766C11.2725 14.6137 9.54146 15.3 7.65017 15.3C3.42512 15.3 0 11.875 0 7.65Z" fill="white"/>
</svg>