<svg xmlns="http://www.w3.org/2000/svg" width="16" height="18" viewBox="0 0 16 18" fill="none">
  <path fill-rule="evenodd" clip-rule="evenodd" d="M12.6749 2C11.9374 2 11.3206 2.61671 11.3206 3.4014C11.3206 3.63039 11.3731 3.84507 11.4659 4.0343C11.48 4.05497 11.4936 4.07633 11.5064 4.09837C11.5226 4.12636 11.5374 4.15482 11.5507 4.18366C11.7958 4.55931 12.2115 4.80279 12.6749 4.80279C13.4123 4.80279 14.0292 4.18609 14.0292 3.4014C14.0292 2.61671 13.4123 2 12.6749 2ZM10.4257 5.9067C11.0161 6.46227 11.8046 6.80279 12.6749 6.80279C14.5218 6.80279 16 5.26922 16 3.4014C16 1.53358 14.5218 0 12.6749 0C10.828 0 9.34975 1.53358 9.34975 3.4014C9.34975 3.66777 9.37982 3.92735 9.43673 4.17665L5.57404 6.48985C4.98361 5.93445 4.19529 5.59403 3.32512 5.59403C1.4782 5.59403 0 7.12761 0 8.99543C0 10.8632 1.4782 12.3968 3.32512 12.3968C4.19258 12.3968 4.97871 12.0585 5.56854 11.5062L9.43765 13.8193C9.38014 14.0699 9.34975 14.3308 9.34975 14.5986C9.34975 16.4664 10.828 18 12.6749 18C14.5218 18 16 16.4664 16 14.5986C16 12.7308 14.5218 11.1972 12.6749 11.1972C11.806 11.1972 11.0188 11.5366 10.4286 12.0905L6.56147 9.77852C6.61955 9.52682 6.65025 9.2646 6.65025 8.99543C6.65025 8.72891 6.62015 8.4692 6.56318 8.21978L10.4257 5.9067ZM4.44795 8.21115C4.46148 8.24063 4.47654 8.26971 4.49316 8.29829C4.50638 8.32103 4.52035 8.34303 4.53502 8.3643C4.6272 8.5531 4.67941 8.76715 4.67941 8.99543C4.67941 9.23964 4.61966 9.46759 4.51512 9.66574C4.50746 9.67774 4.50002 9.68996 4.49279 9.7024C4.48359 9.71826 4.47486 9.73427 4.46661 9.75042C4.22417 10.1415 3.79961 10.3968 3.32512 10.3968C2.58768 10.3968 1.97084 9.78012 1.97084 8.99543C1.97084 8.21074 2.58768 7.59403 3.32512 7.59403C3.78766 7.59403 4.20275 7.83664 4.44795 8.21115ZM11.4486 14.0021C11.4727 13.9702 11.4951 13.9365 11.5157 13.9011C11.5389 13.8611 11.559 13.8203 11.5762 13.7787C11.8239 13.4245 12.2272 13.1972 12.6749 13.1972C13.4123 13.1972 14.0292 13.8139 14.0292 14.5986C14.0292 15.3833 13.4123 16 12.6749 16C11.9374 16 11.3206 15.3833 11.3206 14.5986C11.3206 14.3842 11.3666 14.1823 11.4486 14.0021Z" fill="white"/>
</svg>