<svg width="15" height="17" viewBox="0 0 15 17" fill="none" xmlns="http://www.w3.org/2000/svg">
<path d="M11.7631 5.30737C12.9525 5.30737 13.9167 4.34314 13.9167 3.15369C13.9167 1.96424 12.9525 1 11.7631 1C10.5736 1 9.60938 1.96424 9.60938 3.15369C9.60938 4.34314 10.5736 5.30737 11.7631 5.30737Z" stroke="white" stroke-width="2" stroke-linecap="round" stroke-linejoin="round"/>
<path d="M3.15369 10.3245C4.34314 10.3245 5.30737 9.36023 5.30737 8.17078C5.30737 6.98133 4.34314 6.01709 3.15369 6.01709C1.96424 6.01709 1 6.98133 1 8.17078C1 9.36023 1.96424 10.3245 3.15369 10.3245Z" stroke="white" stroke-width="2" stroke-linecap="round" stroke-linejoin="round"/>
<path d="M11.7631 15.3499C12.9525 15.3499 13.9167 14.3856 13.9167 13.1962C13.9167 12.0067 12.9525 11.0425 11.7631 11.0425C10.5736 11.0425 9.60938 12.0067 9.60938 13.1962C9.60938 14.3856 10.5736 15.3499 11.7631 15.3499Z" stroke="white" stroke-width="2" stroke-linecap="round" stroke-linejoin="round"/>
<path d="M5.01172 9.25977L9.91321 12.1148" stroke="white" stroke-width="2" stroke-linecap="round" stroke-linejoin="round"/>
<path d="M9.90496 4.23486L5.01172 7.08994" stroke="white" stroke-width="2" stroke-linecap="round" stroke-linejoin="round"/>
</svg>
