<svg xmlns="http://www.w3.org/2000/svg" width="54" height="48" viewBox="0 0 54 48" fill="none">
  <path d="M12.7371 19.8889H38.2927M17.8482 30.1111H30.626M26.5371 2C29.2076 2.00166 31.8189 2.7868 34.0474 4.25814C36.276 5.72948 38.024 7.82235 39.0746 10.2774C40.8533 10.478 42.5751 11.0269 44.1416 11.8928C45.7082 12.7587 47.0888 13.9247 48.2048 15.3242C49.3207 16.7237 50.1501 18.3293 50.6455 20.0494C51.1409 21.7694 51.2927 23.5702 51.0921 25.3488C50.8916 27.1275 50.3427 28.8493 49.4768 30.4158C48.6109 31.9824 47.4449 33.363 46.0454 34.479C44.6458 35.5949 43.0402 36.4242 41.3202 36.9197C39.6002 37.4151 37.7994 37.5669 36.0208 37.3663C34.7263 39.6561 32.6466 41.3997 30.1661 42.2749C27.6857 43.1501 24.9722 43.0977 22.5274 42.1273L12.7371 48V39.9909C11.737 39.7596 10.802 39.3056 10.0018 38.6625C9.20169 38.0195 8.55708 37.204 8.11608 36.2771C7.67509 35.3501 7.44908 34.3356 7.45493 33.3091C7.46078 32.2826 7.69833 31.2706 8.14987 30.3488C5.70995 28.9452 3.82701 26.7451 2.81695 24.1177C1.80688 21.4903 1.73116 18.5955 2.60248 15.9189C3.47381 13.2423 5.23916 10.9468 7.60235 9.41756C9.96555 7.88829 12.7828 7.2183 15.5814 7.52C16.8486 5.80718 18.4999 4.4155 20.4026 3.4568C22.3054 2.49811 24.4065 1.99914 26.5371 2Z" stroke="white" stroke-width="4" stroke-linecap="round" stroke-linejoin="round"/>
</svg>