<svg xmlns="http://www.w3.org/2000/svg" width="30" height="24" viewBox="0 0 30 24" fill="none">
  <path d="M19.3912 17.983C19.0298 17.983 18.7889 17.8627 18.548 17.622L14.5728 13.6508L10.5976 17.622C10.1158 18.1034 9.39303 18.1034 8.91119 17.622C8.42934 17.1407 8.42934 16.4186 8.91119 15.9373L13.7296 11.1237C14.2114 10.6424 14.9342 10.6424 15.416 11.1237L20.2344 15.9373C20.7163 16.4186 20.7163 17.1407 20.2344 17.622C19.9935 17.8627 19.7526 17.983 19.3912 17.983Z" fill="white"/>
  <path d="M14.5728 24C13.85 24 13.3682 23.5186 13.3682 22.7966V11.9661C13.3682 11.2441 13.85 10.7627 14.5728 10.7627C15.2955 10.7627 15.7774 11.2441 15.7774 11.9661V22.7966C15.7774 23.5186 15.2955 24 14.5728 24Z" fill="white"/>
  <path d="M24.69 20.8712C24.2082 20.8712 23.8468 20.6306 23.6059 20.2696C23.2445 19.6679 23.4854 18.9458 24.0877 18.5848C25.1719 17.9831 26.0151 16.9001 26.3765 15.6967C26.7378 14.4933 26.6174 13.1696 26.0151 12.0865C25.1719 10.5221 23.6059 9.55939 21.799 9.55939H20.233C19.6307 9.55939 19.1488 9.19838 19.0284 8.71702C17.8238 4.26448 13.2463 1.49669 8.78926 2.70008C6.62097 3.18143 4.81407 4.50516 3.72993 6.43058C2.52532 8.47634 2.2844 10.6424 2.76624 12.9289C3.12762 14.2526 3.72993 15.456 4.57315 16.4187C5.05499 16.9001 4.93453 17.6221 4.45269 18.1035C3.97085 18.5848 3.24808 18.4645 2.76624 17.9831C1.6821 16.6594 0.83888 15.2153 0.357039 13.5306C-0.365723 10.7628 -0.00434188 7.87465 1.56164 5.34753C3.12762 2.82042 5.41637 1.13567 8.18695 0.41364C13.7281 -1.15076 19.3898 1.85771 21.1967 7.15262H21.799C24.4491 7.15262 26.8583 8.59668 28.1834 10.8831C29.147 12.5679 29.2675 14.4933 28.7857 16.4187C28.1834 18.2238 26.9788 19.7882 25.2923 20.7509C25.0514 20.7509 24.9309 20.8712 24.69 20.8712Z" fill="white"/>
  <path d="M19.3912 17.983C19.0298 17.983 18.7889 17.8627 18.548 17.622L14.5728 13.6508L10.5976 17.622C10.1158 18.1034 9.39303 18.1034 8.91119 17.622C8.42934 17.1407 8.42934 16.4186 8.91119 15.9373L13.7296 11.1237C14.2114 10.6424 14.9342 10.6424 15.416 11.1237L20.2344 15.9373C20.7163 16.4186 20.7163 17.1407 20.2344 17.622C19.9935 17.8627 19.7526 17.983 19.3912 17.983Z" fill="white"/>
</svg>