<svg xmlns="http://www.w3.org/2000/svg" width="24" height="24" viewBox="0 0 24 24" fill="none">
  <path d="M1 6.5V3.75C1 3.02065 1.28973 2.32118 1.80546 1.80546C2.32118 1.28973 3.02065 1 3.75 1H6.5M1 17.5V20.25C1 20.9793 1.28973 21.6788 1.80546 22.1945C2.32118 22.7103 3.02065 23 3.75 23H6.5M17.5 1H20.25C20.9793 1 21.6788 1.28973 22.1945 1.80546C22.7103 2.32118 23 3.02065 23 3.75V6.5M17.5 23H20.25C20.9793 23 21.6788 22.7103 22.1945 22.1945C22.7103 21.6788 23 20.9793 23 20.25V17.5M6.5 17.5C6.5 16.7707 6.78973 16.0712 7.30546 15.5555C7.82118 15.0397 8.52065 14.75 9.25 14.75H14.75C15.4793 14.75 16.1788 15.0397 16.6945 15.5555C17.2103 16.0712 17.5 16.7707 17.5 17.5M9.25 7.875C9.25 8.60435 9.53973 9.30382 10.0555 9.81954C10.5712 10.3353 11.2707 10.625 12 10.625C12.7293 10.625 13.4288 10.3353 13.9445 9.81954C14.4603 9.30382 14.75 8.60435 14.75 7.875C14.75 7.14565 14.4603 6.44618 13.9445 5.93046C13.4288 5.41473 12.7293 5.125 12 5.125C11.2707 5.125 10.5712 5.41473 10.0555 5.93046C9.53973 6.44618 9.25 7.14565 9.25 7.875Z" stroke="white" stroke-width="2" stroke-linecap="round" stroke-linejoin="round"/>
</svg>