<svg xmlns="http://www.w3.org/2000/svg" width="16" height="16" viewBox="0 0 16 16" fill="none">
  <path d="M1.76802 3.72385C1.76802 3.20513 1.97408 2.70766 2.34087 2.34087C2.70766 1.97408 3.20513 1.76802 3.72385 1.76802H4.61286C5.12929 1.76772 5.62464 1.56319 5.99083 1.19905L6.61314 0.57674C6.7949 0.39396 7.01099 0.24891 7.249 0.149932C7.48701 0.0509537 7.74223 0 8 0C8.25777 0 8.51299 0.0509537 8.751 0.149932C8.98901 0.24891 9.2051 0.39396 9.38686 0.57674L10.0092 1.19905C10.3754 1.56355 10.8715 1.76802 11.3871 1.76802H12.2762C12.7949 1.76802 13.2923 1.97408 13.6591 2.34087C14.0259 2.70766 14.232 3.20513 14.232 3.72385V4.61286C14.232 5.12849 14.4365 5.62456 14.8009 5.99083L15.4233 6.61314C15.606 6.7949 15.7511 7.01099 15.8501 7.249C15.949 7.48701 16 7.74223 16 8C16 8.25777 15.949 8.51299 15.8501 8.751C15.7511 8.98901 15.606 9.2051 15.4233 9.38686L14.8009 10.0092C14.4368 10.3754 14.2323 10.8707 14.232 11.3871V12.2762C14.232 12.7949 14.0259 13.2923 13.6591 13.6591C13.2923 14.0259 12.7949 14.232 12.2762 14.232H11.3871C10.8707 14.2323 10.3754 14.4368 10.0092 14.8009L9.38686 15.4233C9.2051 15.606 8.98901 15.7511 8.751 15.8501C8.51299 15.949 8.25777 16 8 16C7.74223 16 7.48701 15.949 7.249 15.8501C7.01099 15.7511 6.7949 15.606 6.61314 15.4233L5.99083 14.8009C5.62464 14.4368 5.12929 14.2323 4.61286 14.232H3.72385C3.20513 14.232 2.70766 14.0259 2.34087 13.6591C1.97408 13.2923 1.76802 12.7949 1.76802 12.2762V11.3871C1.76772 10.8707 1.56319 10.3754 1.19905 10.0092L0.57674 9.38686C0.39396 9.2051 0.24891 8.98901 0.149932 8.751C0.0509537 8.51299 0 8.25777 0 8C0 7.74223 0.0509537 7.48701 0.149932 7.249C0.24891 7.01099 0.39396 6.7949 0.57674 6.61314L1.19905 5.99083C1.56319 5.62464 1.76772 5.12929 1.76802 4.61286V3.72385Z" fill="#0CE466"/>
  <path d="M5.32422 7.99092L7.10224 9.76894L10.6583 6.21289" stroke="white" stroke-width="2" stroke-linecap="round" stroke-linejoin="round"/>
</svg>