<svg xmlns="http://www.w3.org/2000/svg" width="18" height="18" viewBox="0 0 18 18" fill="none">
  <path d="M6.33333 7.20722C6.33333 7.32509 6.38016 7.43814 6.4635 7.52149C6.54685 7.60484 6.6599 7.65166 6.77777 7.65166C6.89565 7.65166 7.00869 7.60484 7.09204 7.52149C7.17539 7.43814 7.22222 7.32509 7.22222 7.20722V6.31833C7.22222 6.20046 7.17539 6.08741 7.09204 6.00406C7.00869 5.92071 6.89565 5.87389 6.77777 5.87389C6.6599 5.87389 6.54685 5.92071 6.4635 6.00406C6.38016 6.08741 6.33333 6.20046 6.33333 6.31833V7.20722ZM6.33333 7.20722C6.33333 8.38596 6.80158 9.51642 7.63508 10.3499C8.46857 11.1834 9.59903 11.6517 10.7778 11.6517M10.7778 11.6517H11.6667C11.7845 11.6517 11.8976 11.6048 11.9809 11.5215C12.0643 11.4381 12.1111 11.3251 12.1111 11.2072C12.1111 11.0893 12.0643 10.9763 11.9809 10.8929C11.8976 10.8096 11.7845 10.7628 11.6667 10.7628H10.7778C10.6599 10.7628 10.5469 10.8096 10.4635 10.8929C10.3802 10.9763 10.3333 11.0893 10.3333 11.2072C10.3333 11.3251 10.3802 11.4381 10.4635 11.5215C10.5469 11.6048 10.6599 11.6517 10.7778 11.6517ZM1 16.985L2.46667 13.6072C1.34459 12.0144 0.842371 10.0668 1.05426 8.12998C1.26615 6.19315 2.17759 4.40023 3.61752 3.08768C5.05745 1.77513 6.92689 1.03319 8.875 1.00109C10.8231 0.968985 12.716 1.64893 14.1984 2.91333C15.6808 4.17772 16.6508 5.93964 16.9264 7.86843C17.202 9.79722 16.7642 11.7603 15.6952 13.3892C14.6262 15.0182 12.9995 16.201 11.1203 16.7158C9.24119 17.2305 7.23877 17.0418 5.48889 16.185L1 16.985Z" stroke="white" stroke-width="2" stroke-linecap="round" stroke-linejoin="round"/>
</svg>