<svg xmlns="http://www.w3.org/2000/svg" width="146" height="45" viewBox="0 0 146 45" fill="none">
  <path d="M8.56316 33.3703L15.8968 44.9855L23.2739 33.298L27.1504 44.9855H31.7936L18.9778 6.36451L0.274831 0L10.5448 13.6114L0 45H4.65767L8.56316 33.3703ZM15.4773 12.8013L12.4397 8.7946L15.4773 9.8216L21.4802 27.8881L15.8968 36.7261L10.3713 27.9749L15.4773 12.8013Z" fill="#12CFA7"/>
  <path d="M38.25 44.4204V15.8393L52.3845 32.9612L66.5189 15.8393V44.4204H61.6365V28.7476L52.3845 40.0061L43.1324 28.7253V44.3981H38.25V44.4204Z" fill="white"/>
  <path d="M70.844 34.4103C70.844 31.2668 71.8026 28.7253 73.7422 26.8303C75.6818 24.8907 78.1787 23.9321 81.2107 23.9321C84.109 23.9321 86.4498 24.8907 88.2334 26.8303C90.0615 28.7253 90.9755 31.1108 90.9755 33.9421C90.9755 34.5441 90.931 35.1237 90.8864 35.6588H75.5703C75.7264 38.8245 78.0673 40.831 81.5897 40.831C84.7332 40.831 87.1187 40.073 88.7684 38.5347V42.9712C86.8288 44.3312 84.3542 45 81.3891 45C78.2456 45 75.6818 44.0414 73.7199 42.1909C71.7803 40.2959 70.8217 37.7544 70.8217 34.6109V34.4103H70.844ZM86.1154 32.2701C86.1154 31.1108 85.6473 30.0852 84.6886 29.2604C83.73 28.4355 82.593 27.9896 81.1884 27.9896C79.717 27.9896 78.4463 28.4355 77.3761 29.2604C76.306 30.0852 75.7487 31.0885 75.6595 32.2701H86.1154Z" fill="white"/>
  <path d="M94.1859 44.4204V24.4002H98.9123V27.3877C99.8709 25.292 102.056 24.0212 104.865 24.0212C105.422 24.0212 105.89 24.0658 106.292 24.1327V28.7476C105.69 28.6361 105.021 28.5469 104.307 28.5469C101.008 28.5469 98.9123 30.6203 98.9123 33.8975V44.4204H94.1859Z" fill="white"/>
  <path d="M109.68 44.4204V16.7534H114.451V44.4204H109.68Z" fill="white"/>
  <path d="M118.174 19.2503C118.174 17.6674 119.445 16.4412 121.028 16.4412C122.566 16.4412 123.837 17.6674 123.837 19.2503C123.837 20.8332 122.566 22.0594 121.028 22.0594C119.445 22.0594 118.174 20.8332 118.174 19.2503ZM118.643 44.4204V24.4002H123.413V44.4204H118.643Z" fill="white"/>
  <path d="M127.605 44.4204V24.4002H132.331V27.2539C133.29 25.3143 135.541 23.999 138.395 23.999C143.166 23.999 145.975 27.0532 145.975 32.0248V44.4204H141.204V32.7159C141.204 29.9738 139.621 28.2794 136.946 28.2794C134.248 28.2794 132.309 30.1744 132.309 32.9166V44.4204H127.605Z" fill="white"/>
  <path d="M69.7293 20.0049V15.8296H71.3249C71.6707 15.8296 71.9898 15.9626 72.2823 16.202C72.5483 16.4413 72.7078 16.787 72.7078 17.1859C72.7078 17.5848 72.5749 17.904 72.2823 18.1433C72.0164 18.4092 71.6973 18.5156 71.3249 18.5156H70.4739V19.9783H69.7293V20.0049ZM70.4739 17.8774H71.2718C71.6175 17.8774 71.9366 17.638 71.9366 17.2125C71.9366 16.787 71.6175 16.5211 71.2718 16.5211H70.4739V17.8774Z" fill="white"/>
  <path d="M75.3764 20.0049V15.8296H76.9986C77.3709 15.8296 77.69 15.9626 77.956 16.202C78.2219 16.4413 78.3549 16.7604 78.3549 17.1327C78.3549 17.6646 78.0624 18.1167 77.5837 18.3295L78.5942 20.0049H77.7432L76.839 18.5156H76.121V20.0049H75.3764ZM76.121 17.8508H76.9188C77.3177 17.8508 77.6103 17.5582 77.6103 17.1593C77.6103 16.787 77.3443 16.4945 76.972 16.4945H76.121V17.8508Z" fill="white"/>
  <path d="M81.6085 19.4731C81.183 19.0476 80.9703 18.5424 80.9703 17.9307C80.9703 17.319 81.183 16.8138 81.6085 16.3883C82.034 15.9627 82.5659 15.75 83.1775 15.75C83.7892 15.75 84.3211 15.9627 84.7466 16.3883C85.1721 16.8138 85.3848 17.319 85.3848 17.9307C85.3848 18.5424 85.1721 19.0476 84.7466 19.4731C84.3211 19.8987 83.7892 20.0848 83.1775 20.0848C82.5659 20.0848 82.034 19.8987 81.6085 19.4731ZM82.1138 18.9945C82.4063 19.287 82.752 19.42 83.151 19.42C83.5499 19.42 83.9222 19.287 84.1881 18.9945C84.4806 18.7019 84.6136 18.3562 84.6136 17.9307C84.6136 17.5052 84.4806 17.1595 84.1881 16.8669C83.8956 16.5744 83.5499 16.4414 83.151 16.4414C82.752 16.4414 82.3797 16.5744 82.1138 16.8669C81.8213 17.1595 81.6883 17.5052 81.6883 17.9307C81.6883 18.3562 81.8479 18.7285 82.1138 18.9945Z" fill="white"/>
  <path d="M87.5747 19.3664C87.6811 19.393 87.7874 19.4196 87.9204 19.4196C88.3193 19.4196 88.3991 19.1803 88.3991 18.7548V15.856H89.1437V18.7016C89.1437 19.0207 89.1437 19.2069 89.0373 19.4728C88.9044 19.8451 88.6118 20.0579 87.9736 20.0845C87.814 20.0845 87.6811 20.0579 87.5481 20.0313V19.3664H87.5747Z" fill="white"/>
  <path d="M92.0516 20.0049V15.8296H94.711V16.4945H92.7962V17.4785H94.578V18.1433H92.7962V19.2868H94.7376V19.9517H92.0516V20.0049Z" fill="white"/>
  <path d="M100.837 16.2019V16.9997C100.464 16.6274 100.039 16.4412 99.5336 16.4412C99.1081 16.4412 98.7624 16.5742 98.4698 16.8667C98.1773 17.1593 98.0443 17.505 98.0443 17.9305C98.0443 18.356 98.1773 18.7017 98.4698 18.9943C98.7624 19.2868 99.1081 19.4198 99.5336 19.4198C100.039 19.4198 100.464 19.2336 100.837 18.8613V19.6591C100.491 19.9516 100.065 20.0846 99.5336 20.0846C98.9219 20.0846 98.39 19.8719 97.9645 19.4729C97.539 19.0474 97.3263 18.5422 97.3263 17.9305C97.3263 17.3188 97.539 16.787 97.9645 16.388C98.39 15.9625 98.9219 15.7764 99.5336 15.7764C100.065 15.7764 100.491 15.9094 100.837 16.2019Z" fill="white"/>
  <path d="M104.463 20.0047V16.5209H103.319V15.856H106.324V16.5209H105.181V20.0047H104.463Z" fill="white"/>
</svg>