<svg xmlns="http://www.w3.org/2000/svg" width="190" height="80" viewBox="0 0 190 80" fill="none">
  <path d="M65.728 68.9425V35.9756L82.0315 55.7249L98.3349 35.9756V68.9425H92.7033V50.8647L82.0315 63.8509L71.3597 50.839V68.9168H65.728V68.9425Z" fill="white"/>
  <path d="M103.324 57.3962C103.324 53.7704 104.429 50.8388 106.667 48.653C108.904 46.4158 111.784 45.3101 115.281 45.3101C118.624 45.3101 121.324 46.4158 123.382 48.653C125.49 50.8388 126.545 53.5904 126.545 56.8562C126.545 57.5505 126.493 58.2191 126.442 58.8363H108.775C108.955 62.4878 111.655 64.8022 115.718 64.8022C119.344 64.8022 122.096 63.9279 123.999 62.1535V67.2708C121.761 68.8395 118.907 69.6109 115.487 69.6109C111.861 69.6109 108.904 68.5052 106.641 66.3708C104.404 64.185 103.298 61.2535 103.298 57.6276V57.3962H103.324ZM120.939 54.9275C120.939 53.5904 120.399 52.4075 119.293 51.456C118.187 50.5045 116.876 49.9902 115.256 49.9902C113.558 49.9902 112.093 50.5045 110.858 51.456C109.624 52.4075 108.981 53.5646 108.878 54.9275H120.939Z" fill="white"/>
  <path d="M130.247 68.9425V45.8502H135.699V49.2961C136.805 46.8789 139.325 45.4131 142.565 45.4131C143.208 45.4131 143.748 45.4645 144.211 45.5417V50.8647C143.516 50.7361 142.745 50.6333 141.922 50.6333C138.116 50.6333 135.699 53.0248 135.699 56.8049V68.9425H130.247Z" fill="white"/>
  <path d="M148.12 68.9424V37.0298H153.623V68.9424H148.12Z" fill="white"/>
  <path d="M157.917 39.91C157.917 38.0843 159.383 36.6699 161.209 36.6699C162.983 36.6699 164.449 38.0843 164.449 39.91C164.449 41.7358 162.983 43.1502 161.209 43.1502C159.383 43.1502 157.917 41.7358 157.917 39.91ZM158.457 68.9425V45.8502H163.96V68.9425H158.457Z" fill="white"/>
  <path d="M168.795 68.9423V45.8501H174.246V49.1416C175.352 46.9044 177.949 45.3872 181.241 45.3872C186.744 45.3872 189.984 48.9102 189.984 54.6447V68.9423H184.481V55.4419C184.481 52.2789 182.655 50.3245 179.569 50.3245C176.458 50.3245 174.22 52.5103 174.22 55.6733V68.9423H168.795Z" fill="white"/>
  <path d="M102.038 40.7803V35.9644H103.878C104.277 35.9644 104.645 36.1177 104.983 36.3938C105.289 36.6699 105.474 37.0686 105.474 37.5288C105.474 37.9889 105.32 38.357 104.983 38.6331C104.676 38.9398 104.308 39.0625 103.878 39.0625H102.897V40.7496H102.038V40.7803ZM102.897 38.3263H103.817C104.216 38.3263 104.584 38.0502 104.584 37.5594C104.584 37.0686 104.216 36.7619 103.817 36.7619H102.897V38.3263Z" fill="white"/>
  <path d="M108.552 40.7803V35.9644H110.423C110.852 35.9644 111.22 36.1177 111.527 36.3938C111.834 36.6699 111.987 37.038 111.987 37.4674C111.987 38.0809 111.65 38.6024 111.098 38.8478L112.263 40.7803H111.282L110.239 39.0625H109.411V40.7803H108.552ZM109.411 38.2956H110.331C110.791 38.2956 111.128 37.9582 111.128 37.4981C111.128 37.0686 110.822 36.7312 110.392 36.7312H109.411V38.2956Z" fill="white"/>
  <path d="M115.74 40.167C115.249 39.6762 115.004 39.0934 115.004 38.3879C115.004 37.6824 115.249 37.0996 115.74 36.6088C116.231 36.118 116.844 35.8726 117.55 35.8726C118.255 35.8726 118.869 36.118 119.36 36.6088C119.851 37.0996 120.096 37.6824 120.096 38.3879C120.096 39.0934 119.851 39.6762 119.36 40.167C118.869 40.6578 118.255 40.8726 117.55 40.8726C116.844 40.8726 116.231 40.6578 115.74 40.167ZM116.323 39.6149C116.66 39.9523 117.059 40.1057 117.519 40.1057C117.979 40.1057 118.409 39.9523 118.716 39.6149C119.053 39.2775 119.206 38.8787 119.206 38.3879C119.206 37.8971 119.053 37.4983 118.716 37.1609C118.378 36.8235 117.979 36.6701 117.519 36.6701C117.059 36.6701 116.63 36.8235 116.323 37.1609C115.985 37.4983 115.832 37.8971 115.832 38.3879C115.832 38.8787 116.016 39.3081 116.323 39.6149Z" fill="white"/>
  <path d="M122.622 40.0437C122.744 40.0744 122.867 40.1051 123.021 40.1051C123.481 40.1051 123.573 39.829 123.573 39.3382V35.9946H124.432V39.2768C124.432 39.6449 124.432 39.8597 124.309 40.1664C124.155 40.5959 123.818 40.8413 123.082 40.8719C122.898 40.8719 122.744 40.8413 122.591 40.8106V40.0437H122.622Z" fill="white"/>
  <path d="M127.786 40.7803V35.9644H130.853V36.7312H128.645V37.8662H130.7V38.6331H128.645V39.9521H130.884V40.719H127.786V40.7803Z" fill="white"/>
  <path d="M137.919 36.3936V37.3139C137.489 36.8844 136.999 36.6697 136.416 36.6697C135.925 36.6697 135.526 36.8231 135.189 37.1605C134.851 37.4979 134.698 37.8967 134.698 38.3875C134.698 38.8783 134.851 39.2771 135.189 39.6145C135.526 39.9519 135.925 40.1053 136.416 40.1053C136.999 40.1053 137.489 39.8906 137.919 39.4611V40.3814C137.52 40.7188 137.029 40.8722 136.416 40.8722C135.71 40.8722 135.097 40.6268 134.606 40.1666C134.115 39.6758 133.87 39.093 133.87 38.3875C133.87 37.682 134.115 37.0685 134.606 36.6083C135.097 36.1176 135.71 35.9028 136.416 35.9028C137.029 35.9028 137.52 36.0562 137.919 36.3936Z" fill="white"/>
  <path d="M142.101 40.7799V36.7615H140.782V35.9946H144.248V36.7615H142.929V40.7799H142.101Z" fill="white"/>
  <path d="M15.2234 59.325L28.261 79.9743L41.3758 59.1964L48.2674 79.9743H56.522L33.7383 11.3147L0.488589 0L18.7464 24.198L0 80H8.2803L15.2234 59.325ZM27.5153 22.758L22.1151 15.6348L27.5153 17.4606L38.1871 49.5789L28.261 65.2909L18.4378 49.7332L27.5153 22.758Z" fill="#12CFA7"/>
</svg>