<svg xmlns="http://www.w3.org/2000/svg" width="190" height="80" viewBox="0 0 190 80" fill="none">
  <path d="M50 64.3658V33.0977L65.4633 51.8293L80.9267 33.0977V64.3658H75.5852V47.2195L65.4633 59.5365L55.3414 47.1951V64.3414H50V64.3658Z" fill="white"/>
  <path d="M85.6591 53.4145C85.6591 49.9755 86.7079 47.195 88.8299 45.1219C90.9518 42.9999 93.6835 41.9512 97.0006 41.9512C100.171 41.9512 102.732 42.9999 104.683 45.1219C106.683 47.195 107.683 49.8048 107.683 52.9023C107.683 53.5609 107.635 54.195 107.586 54.7804H90.8299C91.0006 58.2438 93.5616 60.4389 97.4152 60.4389C100.854 60.4389 103.464 59.6096 105.269 57.9267V62.7803C103.147 64.2681 100.44 64.9998 97.1957 64.9998C93.7567 64.9998 90.9518 63.9511 88.8055 61.9267C86.6835 59.8535 85.6348 57.073 85.6348 53.634V53.4145H85.6591ZM102.366 51.0731C102.366 49.8048 101.854 48.6828 100.805 47.7804C99.7566 46.878 98.5127 46.3902 96.9762 46.3902C95.3664 46.3902 93.9762 46.878 92.8055 47.7804C91.6347 48.6828 91.025 49.7804 90.9274 51.0731H102.366Z" fill="white"/>
  <path d="M111.195 64.3658V42.4635H116.366V45.7317C117.415 43.4391 119.805 42.0488 122.878 42.0488C123.488 42.0488 124 42.0976 124.439 42.1708V47.2195C123.781 47.0976 123.049 47 122.268 47C118.659 47 116.366 49.2683 116.366 52.8536V64.3658H111.195Z" fill="white"/>
  <path d="M128.145 64.3658V34.0977H133.364V64.3658H128.145Z" fill="white"/>
  <path d="M137.439 36.8295C137.439 35.0978 138.83 33.7563 140.561 33.7563C142.244 33.7563 143.635 35.0978 143.635 36.8295C143.635 38.5612 142.244 39.9027 140.561 39.9027C138.83 39.9027 137.439 38.5612 137.439 36.8295ZM137.952 64.3659V42.4636H143.171V64.3659H137.952Z" fill="white"/>
  <path d="M147.756 64.3658V42.4634H152.927V45.5854C153.975 43.4634 156.439 42.0244 159.561 42.0244C164.78 42.0244 167.853 45.3659 167.853 50.8049V64.3658H162.634V51.561C162.634 48.561 160.902 46.7073 157.975 46.7073C155.024 46.7073 152.902 48.7805 152.902 51.7805V64.3658H147.756Z" fill="white"/>
  <path d="M84.4375 37.6547V33.0869H86.1832C86.5614 33.0869 86.9105 33.2324 87.2305 33.4942C87.5215 33.7561 87.6961 34.1343 87.6961 34.5707C87.6961 35.0071 87.5506 35.3563 87.2305 35.6181C86.9396 35.909 86.5905 36.0254 86.1832 36.0254H85.2521V37.6256H84.4375V37.6547ZM85.2521 35.3272H86.125C86.5032 35.3272 86.8523 35.0653 86.8523 34.5998C86.8523 34.1343 86.5032 33.8434 86.125 33.8434H85.2521V35.3272Z" fill="white"/>
  <path d="M90.6152 37.6547V33.0869H92.39C92.7973 33.0869 93.1464 33.2324 93.4374 33.4942C93.7283 33.7561 93.8738 34.1052 93.8738 34.5125C93.8738 35.0944 93.5537 35.589 93.03 35.8218L94.1356 37.6547H93.2046L92.2154 36.0254H91.4299V37.6547H90.6152ZM91.4299 35.2981H92.3027C92.7391 35.2981 93.0591 34.978 93.0591 34.5416C93.0591 34.1343 92.7682 33.8143 92.3609 33.8143H91.4299V35.2981Z" fill="white"/>
  <path d="M97.4346 37.0732C96.9691 36.6077 96.7363 36.0549 96.7363 35.3857C96.7363 34.7166 96.9691 34.1638 97.4346 33.6983C97.9001 33.2328 98.482 33 99.1511 33C99.8203 33 100.402 33.2328 100.868 33.6983C101.333 34.1638 101.566 34.7166 101.566 35.3857C101.566 36.0549 101.333 36.6077 100.868 37.0732C100.402 37.5387 99.8203 37.7424 99.1511 37.7424C98.482 37.7424 97.9001 37.5387 97.4346 37.0732ZM97.9874 36.5495C98.3074 36.8695 98.6856 37.015 99.122 37.015C99.5585 37.015 99.9658 36.8695 100.257 36.5495C100.577 36.2295 100.722 35.8512 100.722 35.3857C100.722 34.9202 100.577 34.542 100.257 34.222C99.9367 33.9019 99.5585 33.7565 99.122 33.7565C98.6856 33.7565 98.2783 33.9019 97.9874 34.222C97.6673 34.542 97.5219 34.9202 97.5219 35.3857C97.5219 35.8512 97.6964 36.2585 97.9874 36.5495Z" fill="white"/>
  <path d="M103.961 36.9562C104.077 36.9853 104.193 37.0143 104.339 37.0143C104.775 37.0143 104.863 36.7525 104.863 36.287V33.1157H105.677V36.2288C105.677 36.5779 105.677 36.7816 105.561 37.0725C105.415 37.4799 105.095 37.7126 104.397 37.7417C104.223 37.7417 104.077 37.7126 103.932 37.6835V36.9562H103.961Z" fill="white"/>
  <path d="M108.859 37.6547V33.0869H111.769V33.8143H109.674V34.8908H111.623V35.6181H109.674V36.8692H111.798V37.5965H108.859V37.6547Z" fill="white"/>
  <path d="M118.469 33.4943V34.3671C118.062 33.9598 117.597 33.7562 117.044 33.7562C116.578 33.7562 116.2 33.9016 115.88 34.2217C115.56 34.5417 115.414 34.9199 115.414 35.3854C115.414 35.8509 115.56 36.2292 115.88 36.5492C116.2 36.8692 116.578 37.0147 117.044 37.0147C117.597 37.0147 118.062 36.8111 118.469 36.4037V37.2766C118.091 37.5966 117.626 37.7421 117.044 37.7421C116.375 37.7421 115.793 37.5093 115.327 37.0729C114.862 36.6074 114.629 36.0546 114.629 35.3854C114.629 34.7163 114.862 34.1344 115.327 33.698C115.793 33.2325 116.375 33.0288 117.044 33.0288C117.626 33.0288 118.091 33.1743 118.469 33.4943Z" fill="white"/>
  <path d="M122.437 37.6544V33.8431H121.186V33.1157H124.473V33.8431H123.222V37.6544H122.437Z" fill="white"/>
  <path d="M11.4175 49.4937L21.1958 64.9807L31.0318 49.3973L36.2006 64.9807H42.3915L25.3038 13.486L0.366442 5L14.0598 23.1485L0 65H6.21022L11.4175 49.4937ZM20.6364 22.0685L16.5863 16.7261L20.6364 18.0955L28.6403 42.1842L21.1958 53.9682L13.8283 42.2999L20.6364 22.0685Z" fill="#0CE466"/>
</svg>