<svg xmlns="http://www.w3.org/2000/svg" width="61" height="40" viewBox="0 0 61 40" fill="none">
  <path d="M59.8226 32.4968H57.2032C57.1187 32.0575 57.0004 31.7533 56.8145 31.5843C56.5273 31.297 56.0541 31.1618 55.395 31.1618C54.736 31.1618 54.2966 31.2632 54.0431 31.4829C53.8572 31.6519 53.7558 31.8716 53.7558 32.1589C53.7558 32.5644 54.3135 32.8686 55.395 33.1221C56.6455 33.3925 57.5412 33.6291 58.0989 33.815C58.2509 33.8657 58.3692 33.9164 58.4537 33.967C59.5691 34.4909 60.1098 35.2852 60.1098 36.3498C60.1098 37.651 59.5691 38.5974 58.4875 39.2057C58.3523 39.2733 58.2172 39.3409 58.082 39.4085C57.3891 39.7127 56.5779 39.8648 55.6654 39.8648C54.2966 39.8648 53.1981 39.6282 52.3532 39.1381C51.8293 38.834 51.4237 38.4453 51.1703 37.9721C50.8999 37.4989 50.7816 36.9582 50.7816 36.3329H53.5361C53.5361 36.8061 53.7051 37.1779 54.0431 37.4313C54.3811 37.7017 54.9556 37.8369 55.7499 37.8369C56.3583 37.8369 56.8145 37.7017 57.1018 37.4651C57.3384 37.2624 57.4398 37.0427 57.4398 36.7892C57.4398 36.3667 56.899 36.0287 55.8175 35.7921C54.2121 35.4542 53.1981 35.1669 52.7757 34.9641C51.6772 34.4571 51.1365 33.646 51.1365 32.5475C51.1365 31.6688 51.4237 30.9083 51.9983 30.3C52.725 29.5226 53.8065 29.1508 55.2429 29.1508C56.4259 29.1508 57.3722 29.3198 58.0989 29.6578C58.1665 29.6916 58.2172 29.7085 58.2678 29.7423C58.7748 30.0296 59.1635 30.4014 59.4339 30.8576C59.6874 31.3139 59.8226 31.8547 59.8226 32.4968Z" fill="white"/>
  <path d="M58.4199 26.0921C58.4199 26.0414 58.403 25.9907 58.3861 25.9569C58.3523 25.9062 58.3185 25.8893 58.2678 25.8724C58.2341 25.8555 58.1834 25.8555 58.0989 25.8386H57.6764V26.3456H58.0144C58.0482 26.3456 58.082 26.3456 58.0989 26.3456C58.2172 26.3287 58.3017 26.3118 58.3354 26.278C58.3861 26.2273 58.4199 26.1597 58.4199 26.0921ZM58.6396 25.8217C58.6903 25.8893 58.7241 25.9738 58.7241 26.0583C58.7241 26.1766 58.6734 26.2949 58.5889 26.3794C58.5044 26.4639 58.3861 26.5315 58.2341 26.5315C58.3016 26.5653 58.3354 26.5822 58.3861 26.616L58.6396 26.954L58.8424 27.2919H58.5213L58.3692 27.0215C58.2678 26.8526 58.1834 26.7174 58.1158 26.6667C58.0989 26.6498 58.0989 26.6498 58.082 26.6329L57.8623 26.5653H57.6933V27.2919H57.4229V25.5851H58.0144C58.0482 25.5851 58.082 25.602 58.1158 25.602C58.2678 25.602 58.3692 25.6189 58.4368 25.6527C58.5044 25.6865 58.572 25.7372 58.6396 25.8217Z" fill="white"/>
  <path d="M59.4001 26.447C59.4001 26.2104 59.3494 25.9907 59.2311 25.7879C59.1128 25.5851 58.9438 25.4161 58.741 25.2978C58.5382 25.1965 58.3185 25.1289 58.0989 25.1289C58.082 25.1289 58.082 25.1289 58.082 25.1289C57.8623 25.1289 57.6426 25.1965 57.4398 25.2978C57.237 25.4161 57.068 25.5851 56.9497 25.7879C56.8314 25.9907 56.7638 26.2104 56.7638 26.447C56.7638 26.6667 56.8314 26.8864 56.9497 27.106C57.0511 27.3088 57.2201 27.4609 57.4229 27.5792C57.6257 27.6975 57.8454 27.7482 58.082 27.7482C58.082 27.7482 58.082 27.7482 58.0989 27.7482C58.3185 27.7482 58.5382 27.6975 58.7579 27.5792C58.9607 27.4609 59.1297 27.2919 59.2311 27.106C59.3494 26.8864 59.4001 26.6667 59.4001 26.447ZM59.6705 26.447C59.6705 26.7174 59.6029 26.9708 59.4677 27.2243C59.3325 27.4778 59.1466 27.6637 58.8931 27.7989C58.6396 27.951 58.3861 28.0017 58.1158 28.0017C58.0989 28.0017 58.0989 28.0017 58.0989 28.0017C57.8285 28.0017 57.575 27.9341 57.3215 27.7989C57.068 27.6637 56.8821 27.4778 56.7469 27.2243C56.5948 26.9708 56.5442 26.7174 56.5442 26.447C56.5442 26.1597 56.6117 25.9062 56.7469 25.6527C56.899 25.3992 57.0849 25.2134 57.3384 25.0782C57.5919 24.943 57.8454 24.8754 58.0989 24.8754C58.0989 24.8754 58.0989 24.8754 58.1158 24.8754C58.3861 24.8754 58.6396 24.943 58.8931 25.0782C59.1466 25.2134 59.3494 25.3992 59.4846 25.6527C59.6029 25.8893 59.6705 26.1597 59.6705 26.447Z" fill="white"/>
  <path d="M51.711 26.0245H39.7803L27.3088 5.2725L32.6827 2.02788L36.0625 0L51.711 26.0245Z" fill="white"/>
  <path d="M49.6662 39.6958H47.199V39.1381C46.3709 39.6789 45.3739 40 44.3093 40C44.2924 40 44.2924 40 44.2755 40C41.335 39.9831 38.9354 37.5834 38.9354 34.6261C38.9354 31.6857 41.335 29.2691 44.2755 29.2522C44.2924 29.2522 44.2924 29.2522 44.3093 29.2522C45.3739 29.2522 46.3709 29.5733 47.199 30.1141V29.5226H49.6662V39.6958ZM47.199 35.1838V34.0684C46.9286 32.7165 45.7288 31.6857 44.3093 31.6857C44.2924 31.6857 44.2924 31.6857 44.2755 31.6857C42.6531 31.7026 41.3519 33.0207 41.3519 34.6261C41.3519 36.2484 42.67 37.5665 44.2755 37.5834C44.2924 37.5834 44.2924 37.5834 44.3093 37.5834C45.7288 37.5834 46.9286 36.5357 47.199 35.1838Z" fill="white"/>
  <path d="M38.0735 39.6958H35.6063V39.1381C34.7613 39.6789 33.7812 40 32.7165 40C32.6996 40 32.6996 40 32.6827 40C29.7423 39.9831 27.3426 37.5834 27.3426 34.6261C27.3426 31.6857 29.7423 29.2691 32.6827 29.2522C32.6996 29.2522 32.6996 29.2522 32.7165 29.2522C33.7812 29.2522 34.7782 29.5733 35.6063 30.1141V26.0245H38.0735V39.6958ZM35.6063 35.1838V34.0684C35.3359 32.7165 34.136 31.6857 32.7165 31.6857C32.6996 31.6857 32.6996 31.6857 32.6827 31.6857C31.0604 31.7026 29.7592 33.0207 29.7592 34.6261C29.7592 36.2484 31.0773 37.5665 32.6827 37.5834C32.6996 37.5834 32.6996 37.5834 32.7165 37.5834C34.136 37.5834 35.3359 36.5357 35.6063 35.1838Z" fill="white"/>
  <path d="M32.6827 21.1576L35.5894 26.0245H23.6755L17.0511 15.0232L16.7638 14.5332L17.0511 14.3642L25.5344 9.26067L32.6827 21.1576Z" fill="white"/>
  <path d="M26.3625 29.2522H23.6755V39.6958H26.3625V29.2522Z" fill="white"/>
  <path d="M26.3625 26.0921H23.6755V28.458H26.3625V26.0921Z" fill="white"/>
  <path d="M22.4419 39.6958H19.9747V39.1381C19.1297 39.6789 18.1327 40 17.068 40C17.0511 40 17.0511 40 17.0342 40C14.0938 39.9831 11.6941 37.5834 11.6941 34.6261C11.6941 31.6857 14.0938 29.2691 17.0342 29.2522C17.0511 29.2522 17.0511 29.2522 17.068 29.2522C18.1327 29.2522 19.1297 29.5733 19.9747 30.1141V26.0245H22.4419V39.6958ZM19.9747 35.1838V34.0684C19.7043 32.7165 18.5044 31.6857 17.068 31.6857C17.0511 31.6857 17.0511 31.6857 17.0342 31.6857C15.4119 31.7026 14.1107 33.0207 14.1107 34.6261C14.1107 36.2484 15.4288 37.5665 17.0342 37.5834C17.0511 37.5834 17.0511 37.5834 17.068 37.5834C18.5213 37.5834 19.7212 36.5357 19.9747 35.1838Z" fill="white"/>
  <path d="M19.4846 26.0245H7.55387L6.21884 23.7938L14.9894 18.5382L19.4846 26.0245Z" fill="white"/>
  <path d="M10.7309 34.6261V39.6958H8.26363V39.1381C7.41867 39.6789 6.42163 40 5.35699 40C5.34009 40 5.34009 40 5.32319 40C2.39966 39.9831 0 37.5665 0 34.6261C0 31.6857 2.39966 29.2691 5.34009 29.2522C5.35699 29.2522 5.35699 29.2522 5.37389 29.2522C6.43853 29.2522 7.43557 29.5733 8.28052 30.1141V29.5226H10.7478V34.6261H10.7309ZM8.26363 35.1838V34.0684C7.99324 32.7165 6.79341 31.6857 5.35699 31.6857C5.34009 31.6857 5.34009 31.6857 5.32319 31.6857C3.71779 31.7026 2.39966 33.0207 2.39966 34.6261C2.39966 36.2484 3.71779 37.5665 5.32319 37.5834C5.34009 37.5834 5.34009 37.5834 5.35699 37.5834C6.81031 37.5834 8.01014 36.5357 8.26363 35.1838Z" fill="white"/>
</svg>