<svg xmlns="http://www.w3.org/2000/svg" width="92" height="30" viewBox="0 0 92 30" fill="none">
  <path fill-rule="evenodd" clip-rule="evenodd" d="M4.04059 0.664207H22.7491C24.9631 0.664207 26.7343 2.38007 26.7343 4.53875V4.8155C26.7343 7.02952 24.9631 8.80074 22.7491 8.80074H4.04059C1.82657 8.80074 0 7.02952 0 4.8155V4.53875C0 2.32472 1.82657 0.664207 4.04059 0.664207Z" fill="white"/>
  <path fill-rule="evenodd" clip-rule="evenodd" d="M0 14.9446C0 12.8413 1.99262 11.2362 4.20664 11.2362H20.8118C23.0258 11.2362 24.797 13.0074 24.797 15.2214V15.4428C24.797 17.6568 23.0258 19.428 20.8118 19.428H9.5203C8.96679 19.428 8.46863 19.9262 8.46863 20.4797V26.0148C8.46863 28.2288 6.69742 30 4.4834 30H3.98524C1.77122 30 0 28.2288 0 26.0148V14.9446Z" fill="white"/>
  <path fill-rule="evenodd" clip-rule="evenodd" d="M29.2804 26.0148L29.2251 4.04059C29.2251 1.82657 30.941 0 33.2103 0H33.6531C35.8672 0 37.6384 1.82657 37.6384 4.04059L37.6937 26.0148C37.6937 28.2288 35.9225 30 33.7085 30H33.2103C30.9963 30 29.2804 28.2288 29.2804 26.0148Z" fill="white"/>
  <path fill-rule="evenodd" clip-rule="evenodd" d="M79.8155 2.60148L88.6716 17.048C90.6642 20.1476 91.107 20.9225 91.107 23.3026C91.107 26.9004 87.786 29.6679 84.8524 29.6679H72.8413C70.6273 29.6679 68.8561 28.1734 68.8561 25.9594V25.738C68.8561 23.524 70.6273 21.7528 72.8413 21.7528H80.2583C80.7011 21.7528 80.9779 21.6974 81.0886 21.4207C81.2546 21.0886 81.1439 20.9225 80.9225 20.5904L75.7196 12.1771C75.6642 12.0111 75.5535 11.845 75.4428 11.845C75.2214 11.845 75.1661 12.0664 75.1107 12.1771L67.0849 25.9594C65.8118 28.1734 64.3173 29.7232 62.214 29.7232H46.7712C43.7823 29.7232 40.9041 26.9004 40.9041 23.9114V4.04059C40.9041 1.82657 42.6753 0.0553506 44.8893 0.0553506H45.3875C47.6015 0.0553506 49.3727 1.82657 49.3727 4.04059V20.2583C49.3727 20.8118 49.8155 21.31 50.4244 21.31H58.0627C59.3911 21.31 60.1661 20.8118 60.8856 19.5941L71.1808 2.54613C72.1771 0.940959 73.7269 0.0553506 75.5535 0.0553506C77.3247 0.166052 78.7638 0.940959 79.8155 2.60148Z" fill="white"/>
  <path fill-rule="evenodd" clip-rule="evenodd" d="M4.04059 0.664207H22.7491C24.9631 0.664207 26.7343 2.38007 26.7343 4.53875V4.8155C26.7343 7.02952 24.9631 8.80074 22.7491 8.80074H4.04059C1.82657 8.80074 0 7.02952 0 4.8155V4.53875C0 2.32472 1.82657 0.664207 4.04059 0.664207Z" fill="white"/>
</svg>