<svg xmlns="http://www.w3.org/2000/svg" width="77" height="40" viewBox="0 0 77 40" fill="none">
  <path d="M12.8309 24.488C12.2187 24.488 11.7478 24.9119 11.7478 25.5358C11.7478 26.1598 12.2305 26.5836 12.8309 26.5836C13.4313 26.5836 13.914 26.1598 13.914 25.5358C13.914 24.9119 13.4431 24.488 12.8309 24.488ZM12.8309 26.2775C12.3953 26.2775 12.0774 25.9597 12.0774 25.5358C12.0774 25.112 12.3953 24.7824 12.8309 24.7824C13.2665 24.7824 13.5844 25.112 13.5844 25.5358C13.5844 25.9597 13.2665 26.2775 12.8309 26.2775Z" fill="white"/>
  <path d="M23.3914 20.8266H18.1052L18.7057 11.6436L15.2797 20.8266H10.3703L18.1641 0.0588655H23.3796L22.7792 9.37138L26.2758 0.0588655H31.1851L23.3914 20.8266Z" fill="white"/>
  <path d="M24.0271 20.8266L31.8209 0.0588655H36.7303L28.9365 20.8266H24.0271Z" fill="white"/>
  <path d="M9.80521 13.6686C2.95326 21.7214 -3.52194 32.4349 2.19979 37.3678C7.73314 42.1477 14.6557 39.3221 19.3767 37.4267C24.0977 35.543 76.2526 12.8915 76.2526 12.8915C76.7588 12.6443 76.6646 12.3264 76.0289 12.4795C75.7699 12.5383 19.2472 27.8669 19.2472 27.8669C12.0656 29.8801 3.89511 25.5005 9.80521 13.6686Z" fill="white"/>
  <path d="M13.0193 25.6065C13.1723 25.5947 13.29 25.5241 13.29 25.3122C13.29 25.0414 13.1134 24.9707 12.8191 24.9707H12.3953V26.101H12.6778V25.6183H12.7249L12.9839 26.101H13.3136L13.0193 25.6065ZM12.8309 25.4299H12.6661V25.1709H12.8073C12.8898 25.1709 12.9839 25.1827 12.9839 25.2886C12.9839 25.4063 12.9368 25.4299 12.8309 25.4299Z" fill="white"/>
  <path d="M62.1602 0C61.548 0 61.077 0.423831 61.077 1.04781C61.077 1.67178 61.5597 2.09561 62.1602 2.09561C62.7606 2.09561 63.2433 1.67178 63.2433 1.04781C63.2433 0.423831 62.7724 0 62.1602 0ZM62.1602 1.78951C61.7246 1.78951 61.4067 1.47164 61.4067 1.04781C61.4067 0.623974 61.7246 0.294327 62.1602 0.294327C62.5958 0.294327 62.9136 0.623974 62.9136 1.04781C62.9136 1.47164 62.5958 1.78951 62.1602 1.78951Z" fill="white"/>
  <path d="M62.3485 1.11844C62.5016 1.10667 62.6193 1.03603 62.6193 0.824117C62.6193 0.553335 62.4427 0.482697 62.1484 0.482697H61.7246V1.61291H62.0071V1.13022H62.0542L62.3132 1.61291H62.6429L62.3485 1.11844ZM62.1602 0.941848H61.9953V0.68284H62.1366C62.219 0.68284 62.3132 0.694613 62.3132 0.80057C62.3132 0.918301 62.2661 0.941848 62.1602 0.941848Z" fill="white"/>
  <path d="M58.9226 3.52016L60.2411 0.0588655H45.2658L40.1209 6.28683L42.4991 0.0588655H37.5308L29.8077 20.8148H34.7171L38.0135 12.1381L38.2372 20.8148L53.295 20.7795L54.7313 16.7884H49.0096L50.8933 11.7613H55.6143L57.0624 7.88797H52.3414L53.9543 3.52016H58.9226ZM43.1113 19.4374L42.7934 8.61791L50.2105 0.470924L43.1113 19.4374Z" fill="white"/>
</svg>