<svg width="20" height="20" viewBox="0 0 20 20" fill="none" xmlns="http://www.w3.org/2000/svg">
<path d="M13.9551 1.86483C12.875 0.784644 11.1599 0.716486 10.0005 1.65951C8.83991 0.716522 7.12566 0.784962 6.0458 1.86483C4.89283 3.01783 4.89283 4.89384 6.0458 6.04681L9.73507 9.73643C9.80828 9.80964 9.90425 9.84631 10.0003 9.84631C10.1677 9.84624 10.2615 9.73905 10.2652 9.73661C10.5061 9.49578 11.6162 8.3863 11.7244 8.27826C11.8708 8.13185 11.8709 7.89437 11.7245 7.74789C11.578 7.60138 11.3406 7.60131 11.1941 7.74772C10.5648 8.37667 10.2051 8.73627 10.0003 8.94092L6.57616 5.5164C5.71563 4.65591 5.71563 3.25569 6.57616 2.39516C7.43666 1.53463 8.83705 1.53473 9.69653 2.39392L9.73383 2.43158C9.87954 2.57867 10.1169 2.57987 10.2641 2.43416L10.3034 2.39519C11.1641 1.53473 12.5643 1.53477 13.4247 2.39516C14.1881 3.15859 14.29 4.35045 13.667 5.22916C13.5472 5.39813 13.5871 5.63221 13.756 5.75201C13.925 5.87177 14.1591 5.83196 14.2788 5.66299C15.1142 4.48504 14.978 2.88769 13.9551 1.86483Z" fill="white"/>
<path d="M13.7081 10.7926C13.7784 10.8629 13.8735 10.9028 13.9729 10.9028C14.0698 10.9028 14.1644 10.8667 14.2415 10.7896L15.4348 9.59627C15.5813 9.44983 15.5813 9.21235 15.4348 9.0659C15.2884 8.91946 15.051 8.91946 14.9045 9.06587L13.9733 9.99699L11.6718 7.69551C11.117 7.14076 11.1164 6.24094 11.6718 5.68583C12.226 5.1316 13.1245 5.12818 13.6837 5.68759L13.7099 5.71347C13.8551 5.85677 14.0884 5.85765 14.2346 5.71548C14.2357 5.71449 14.2642 5.68678 14.2652 5.68579C14.8204 5.13026 15.7191 5.13015 16.2748 5.68586C16.8301 6.24112 16.8304 7.13998 16.2748 7.69555L15.9647 8.00566C15.8182 8.15211 15.8182 8.38959 15.9646 8.53603C16.1111 8.68251 16.3486 8.68255 16.495 8.5361L16.8052 8.22595C17.6536 7.37753 17.6539 6.00427 16.8052 5.15553C16.395 4.74535 15.8497 4.51942 15.2698 4.51942C14.7963 4.51942 14.346 4.67003 13.9735 4.94859C13.1337 4.32066 11.9225 4.37445 11.1415 5.15546C10.2934 6.00315 10.293 7.37756 11.1414 8.22599L13.7081 10.7926Z" fill="white"/>
<path d="M17.9052 11.6913C17.4808 11.5566 17.0174 11.6087 16.6314 11.8353L14.0625 13.3658C13.9862 12.7462 13.4571 12.2648 12.8172 12.2648H10.6344C8.83204 11.1846 6.55608 11.1774 4.73272 12.2996C4.55631 12.4082 4.50135 12.6392 4.60989 12.8156C4.71846 12.992 4.94945 13.047 5.12586 12.9384C6.73443 11.9484 8.72848 11.9558 10.3298 12.9578C10.3894 12.9951 10.4584 13.0149 10.5287 13.0149H12.8171C13.0957 13.0149 13.3223 13.2416 13.3223 13.5201C13.3223 13.7986 13.0957 14.0252 12.8171 14.0252H8.7684C8.56128 14.0252 8.39337 14.1931 8.39337 14.4002C8.39337 14.6073 8.56128 14.7752 8.7684 14.7752H12.8172C13.0571 14.7752 13.2814 14.7075 13.4722 14.5903C13.4947 14.5774 16.3734 12.8621 17.0132 12.481C17.4351 12.2331 17.9765 12.4051 18.1784 12.8512C18.3537 13.2378 18.2017 13.6898 17.8425 13.8994L11.5057 17.6182C10.8514 18.0022 10.0805 18.1369 9.33491 17.9973L4.96469 17.1794C4.76142 17.1414 4.56517 17.2754 4.52709 17.479C4.48897 17.6826 4.62313 17.8786 4.82672 17.9166L9.19697 18.7345C10.1179 18.9069 11.073 18.7419 11.8854 18.2651L18.2213 14.5467C18.7024 14.2661 19.0013 13.7456 19.0013 13.1884C19.0013 12.501 18.5535 11.8972 17.9052 11.6913Z" fill="white"/>
<path d="M4.89576 11.2085H1.37503C1.16791 11.2085 1 11.3764 1 11.5835V13.9511C1 14.1582 1.16791 14.3261 1.37503 14.3261C1.58215 14.3261 1.75005 14.1582 1.75005 13.9511V11.9585H4.52073V18.25H1.75005V15.4512C1.75005 15.2441 1.58215 15.0761 1.37503 15.0761C1.16791 15.0761 1 15.2441 1 15.4511V18.625C1 18.8321 1.16791 19 1.37503 19H4.89576C5.10288 19 5.27079 18.8321 5.27079 18.625V11.5835C5.27079 11.3764 5.10288 11.2085 4.89576 11.2085Z" fill="white"/>
<path d="M13.9551 1.86483C12.875 0.784644 11.1599 0.716486 10.0005 1.65951C8.83991 0.716522 7.12566 0.784962 6.0458 1.86483C4.89283 3.01783 4.89283 4.89384 6.0458 6.04681L9.73507 9.73643C9.80828 9.80964 9.90425 9.84631 10.0003 9.84631C10.1677 9.84624 10.2615 9.73905 10.2652 9.73661C10.5061 9.49578 11.6162 8.3863 11.7244 8.27826C11.8708 8.13185 11.8709 7.89437 11.7245 7.74789C11.578 7.60138 11.3406 7.60131 11.1941 7.74772C10.5648 8.37667 10.2051 8.73627 10.0003 8.94092L6.57616 5.5164C5.71563 4.65591 5.71563 3.25569 6.57616 2.39516C7.43666 1.53463 8.83705 1.53473 9.69653 2.39392L9.73383 2.43158C9.87954 2.57867 10.1169 2.57987 10.2641 2.43416L10.3034 2.39519C11.1641 1.53473 12.5643 1.53477 13.4247 2.39516C14.1881 3.15859 14.29 4.35045 13.667 5.22916C13.5472 5.39813 13.5871 5.63221 13.756 5.75201C13.925 5.87177 14.1591 5.83196 14.2788 5.66299C15.1142 4.48504 14.978 2.88769 13.9551 1.86483Z" stroke="white" stroke-width="0.8"/>
<path d="M13.7081 10.7926C13.7784 10.8629 13.8735 10.9028 13.9729 10.9028C14.0698 10.9028 14.1644 10.8667 14.2415 10.7896L15.4348 9.59627C15.5813 9.44983 15.5813 9.21235 15.4348 9.0659C15.2884 8.91946 15.051 8.91946 14.9045 9.06587L13.9733 9.99699L11.6718 7.69551C11.117 7.14076 11.1164 6.24094 11.6718 5.68583C12.226 5.1316 13.1245 5.12818 13.6837 5.68759L13.7099 5.71347C13.8551 5.85677 14.0884 5.85765 14.2346 5.71548C14.2357 5.71449 14.2642 5.68678 14.2652 5.68579C14.8204 5.13026 15.7191 5.13015 16.2748 5.68586C16.8301 6.24112 16.8304 7.13998 16.2748 7.69555L15.9647 8.00566C15.8182 8.15211 15.8182 8.38959 15.9646 8.53603C16.1111 8.68251 16.3486 8.68255 16.495 8.5361L16.8052 8.22595C17.6536 7.37753 17.6539 6.00427 16.8052 5.15553C16.395 4.74535 15.8497 4.51942 15.2698 4.51942C14.7963 4.51942 14.346 4.67003 13.9735 4.94859C13.1337 4.32066 11.9225 4.37445 11.1415 5.15546C10.2934 6.00315 10.293 7.37756 11.1414 8.22599L13.7081 10.7926Z" stroke="white" stroke-width="0.8"/>
<path d="M17.9052 11.6913C17.4808 11.5566 17.0174 11.6087 16.6314 11.8353L14.0625 13.3658C13.9862 12.7462 13.4571 12.2648 12.8172 12.2648H10.6344C8.83204 11.1846 6.55608 11.1774 4.73272 12.2996C4.55631 12.4082 4.50135 12.6392 4.60989 12.8156C4.71846 12.992 4.94945 13.047 5.12586 12.9384C6.73443 11.9484 8.72848 11.9558 10.3298 12.9578C10.3894 12.9951 10.4584 13.0149 10.5287 13.0149H12.8171C13.0957 13.0149 13.3223 13.2416 13.3223 13.5201C13.3223 13.7986 13.0957 14.0252 12.8171 14.0252H8.7684C8.56128 14.0252 8.39337 14.1931 8.39337 14.4002C8.39337 14.6073 8.56128 14.7752 8.7684 14.7752H12.8172C13.0571 14.7752 13.2814 14.7075 13.4722 14.5903C13.4947 14.5774 16.3734 12.8621 17.0132 12.481C17.4351 12.2331 17.9765 12.4051 18.1784 12.8512C18.3537 13.2378 18.2017 13.6898 17.8425 13.8994L11.5057 17.6182C10.8514 18.0022 10.0805 18.1369 9.33491 17.9973L4.96469 17.1794C4.76142 17.1414 4.56517 17.2754 4.52709 17.479C4.48897 17.6826 4.62313 17.8786 4.82672 17.9166L9.19697 18.7345C10.1179 18.9069 11.073 18.7419 11.8854 18.2651L18.2213 14.5467C18.7024 14.2661 19.0013 13.7456 19.0013 13.1884C19.0013 12.501 18.5535 11.8972 17.9052 11.6913Z" stroke="white" stroke-width="0.8"/>
<path d="M4.89576 11.2085H1.37503C1.16791 11.2085 1 11.3764 1 11.5835V13.9511C1 14.1582 1.16791 14.3261 1.37503 14.3261C1.58215 14.3261 1.75005 14.1582 1.75005 13.9511V11.9585H4.52073V18.25H1.75005V15.4512C1.75005 15.2441 1.58215 15.0761 1.37503 15.0761C1.16791 15.0761 1 15.2441 1 15.4511V18.625C1 18.8321 1.16791 19 1.37503 19H4.89576C5.10288 19 5.27079 18.8321 5.27079 18.625V11.5835C5.27079 11.3764 5.10288 11.2085 4.89576 11.2085Z" stroke="white" stroke-width="0.8"/>
</svg>
