<svg width="19" height="18" viewBox="0 0 19 18" fill="none" xmlns="http://www.w3.org/2000/svg">
<path d="M5.70588 5.70588H13.2353M5.70588 9.47059H11.3529M15.1176 1C15.8665 1 16.5847 1.29748 17.1142 1.82699C17.6437 2.35651 17.9412 3.07468 17.9412 3.82353V11.3529C17.9412 12.1018 17.6437 12.82 17.1142 13.3495C16.5847 13.879 15.8665 14.1765 15.1176 14.1765H10.4118L5.70588 17V14.1765H3.82353C3.07468 14.1765 2.35651 13.879 1.82699 13.3495C1.29748 12.82 1 12.1018 1 11.3529V3.82353C1 3.07468 1.29748 2.35651 1.82699 1.82699C2.35651 1.29748 3.07468 1 3.82353 1H15.1176Z" stroke="white" stroke-width="2" stroke-linecap="round" stroke-linejoin="round"/>
</svg>
