<svg width="18" height="18" viewBox="0 0 18 18" fill="none" xmlns="http://www.w3.org/2000/svg">
<path d="M1 4.55556C1 3.61256 1.3746 2.70819 2.0414 2.0414C2.70819 1.3746 3.61256 1 4.55556 1H13.4444C14.3874 1 15.2918 1.3746 15.9586 2.0414C16.6254 2.70819 17 3.61256 17 4.55556V13.4444C17 14.3874 16.6254 15.2918 15.9586 15.9586C15.2918 16.6254 14.3874 17 13.4444 17H4.55556C3.61256 17 2.70819 16.6254 2.0414 15.9586C1.3746 15.2918 1 14.3874 1 13.4444V4.55556Z" stroke="white" stroke-width="2" stroke-linecap="round" stroke-linejoin="round"/>
<path d="M9 4.55556C10.7387 4.55556 12.3102 5.26844 13.4444 6.41778L10.8169 8.99911C10.324 8.54265 9.67709 8.28901 9.00533 8.28889C8.3337 8.28877 7.68676 8.54208 7.19378 8.99822L4.56622 6.41778C5.14537 5.82661 5.83695 5.35731 6.60024 5.03749C7.36353 4.71767 8.18309 4.55381 9.01067 4.55556H9Z" stroke="white" stroke-width="2" stroke-linecap="round" stroke-linejoin="round"/>
</svg>
