<svg xmlns="http://www.w3.org/2000/svg" width="18" height="18" viewBox="0 0 18 18" fill="none">
  <path d="M2.77778 13.4444C3.24927 13.4444 3.70146 13.6317 4.03486 13.9651C4.36825 14.2985 4.55556 14.7507 4.55556 15.2222C4.55556 15.6937 4.36825 16.1459 4.03486 16.4793C3.70146 16.8127 3.24927 17 2.77778 17C2.30628 17 1.8541 16.8127 1.5207 16.4793C1.1873 16.1459 1 15.6937 1 15.2222C1 14.7507 1.1873 14.2985 1.5207 13.9651C1.8541 13.6317 2.30628 13.4444 2.77778 13.4444ZM2.77778 13.4444H7.66667M2.77778 13.4444V1H1M2.77778 2.77778L15.2222 3.66667L14.3333 9.88889H2.77778M10.7778 15.2222L12.5556 17L16.1111 13.4444" stroke="#0CE466" stroke-width="2" stroke-linecap="round" stroke-linejoin="round"/>
</svg>